<?xml version="1.0" encoding="utf-8"?>
<!-- Generator: Adobe Illustrator 28.0.0, SVG Export Plug-In . SVG Version: 6.00 Build 0)  -->
<svg version="1.1" id="Layer_1" xmlns="http://www.w3.org/2000/svg" xmlns:xlink="http://www.w3.org/1999/xlink" x="0px" y="0px"
	 viewBox="0 0 180.83 50" style="enable-background:new 0 0 180.83 50;" xml:space="preserve">
<style type="text/css">
	.st0{fill:#FFFFFF;}
	.st1{fill:#B9BBBD;}
	.st2{fill:#00123B;}
	.st3{fill:#0F1D44;}
	.st4{fill:#F7AF1C;}
</style>
<g>
	<path class="st0" d="M26.13,5.68C15.46,5.68,6.81,14.33,6.81,25c0,10.67,8.65,19.32,19.32,19.32S45.45,35.67,45.45,25
		C45.45,14.33,36.8,5.68,26.13,5.68"/>
	<path class="st1" d="M7.33,25c0-10.38,8.42-18.8,18.8-18.8c10.38,0,18.8,8.42,18.8,18.8c0,10.38-8.42,18.8-18.8,18.8
		C15.74,43.8,7.33,35.38,7.33,25 M1.38,25c0,13.67,11.08,24.74,24.74,24.74S50.87,38.67,50.87,25c0-13.67-11.08-24.74-24.74-24.74
		S1.38,11.33,1.38,25"/>
	<path class="st2" d="M26.13,43.1c-10,0-18.1-8.11-18.1-18.1s8.11-18.1,18.1-18.1S44.23,15,44.23,25S36.12,43.1,26.13,43.1
		 M26.13,1.17C12.97,1.17,2.3,11.84,2.3,25s10.67,23.83,23.83,23.83S49.95,38.16,49.95,25S39.29,1.17,26.13,1.17"/>
	<path class="st3" d="M26.13,7.89C16.69,7.89,9.02,15.56,9.02,25c0,9.43,7.68,17.11,17.11,17.11c9.44,0,17.11-7.68,17.11-17.11
		C43.24,15.56,35.56,7.89,26.13,7.89 M26.13,42.51c-4.68,0-9.07-1.82-12.38-5.13c-3.31-3.31-5.13-7.7-5.13-12.38
		c0-4.68,1.82-9.07,5.13-12.38s7.7-5.13,12.38-5.13c4.68,0,9.07,1.82,12.38,5.13c3.31,3.31,5.13,7.7,5.13,12.38
		c0,4.68-1.82,9.07-5.13,12.38C35.2,40.68,30.8,42.51,26.13,42.51"/>
	<path class="st2" d="M34.66,30.48c0,0-0.53-0.33-2.25-0.55c0,0,0.58-0.12,1.78,0.21c0,0,1.3-6.08,2.75-9.58
		c0,0,0.37-0.03,0.96,0.13C37.9,20.69,36.08,24.76,34.66,30.48 M28.31,29.43c2.3-0.9,4.88-0.55,4.88-0.55
		c0.43-1.99,1.86-7.1,2.69-10.04l0.97,0.05c-1.62,2.85-3.27,10.32-3.27,10.32C32.38,28.89,28.31,29.43,28.31,29.43 M18.69,29.21
		c0,0-1.65-7.47-3.27-10.32l0.97-0.05c0.83,2.93,2.26,8.05,2.69,10.04c0,0,2.58-0.35,4.88,0.55C23.96,29.43,19.89,28.89,18.69,29.21
		 M17.61,30.48c-1.42-5.72-3.24-9.79-3.24-9.79c0.59-0.16,0.96-0.13,0.96-0.13c1.45,3.49,2.75,9.58,2.75,9.58
		c1.21-0.32,1.78-0.21,1.78-0.21C18.14,30.15,17.61,30.48,17.61,30.48 M37.16,20.03c0.15-0.46,0.77-1.75,0.77-1.75l-1.89,0.04
		c0.28-1,0.47-1.64,0.47-1.64c-5.98,0.48-10.23,4.73-10.23,4.73l-0.14,0.05L26,21.41c0,0-4.25-4.25-10.23-4.73
		c0,0,0.19,0.64,0.47,1.64l-1.89-0.04c0,0,0.61,1.29,0.77,1.75c0,0-1.4-0.07-2.23,0.11c0,0,2.06,2.83,4.2,11.1
		c0,0,2.98-1.09,5.06-1.09c2.69,0,3.85,0.18,3.85,0.18h0.27c0,0,1.16-0.18,3.85-0.18c2.08,0,5.06,1.09,5.06,1.09
		c2.15-8.28,4.2-11.1,4.2-11.1C38.56,19.97,37.16,20.03,37.16,20.03"/>
	<path class="st4" d="M22.43,18.3l-0.42,0.05c0.67,0.29,2.06,0.98,4,2.45c0,0,2.66-1.8,4.13-2.46l-0.32-0.04l3.77-1.51l-4.02,0.57
		l3.25-2.44l-3.73,1.59l2.51-3.19l-3.19,2.5l1.59-3.73l-2.44,3.25l0.57-4.02l-1.51,3.77l-0.49-4.03l-0.49,4.03l-1.51-3.77l0.57,4.02
		l-2.44-3.25l1.59,3.73l-3.19-2.51l2.5,3.19l-3.73-1.59l3.25,2.44l-4.02-0.57L22.43,18.3z"/>
	<path class="st3" d="M26.13,44.35c-5.91,0-11.41-2.65-15.11-7.26l0.05-0.04c3.68,4.6,9.17,7.24,15.06,7.24
		c5.89,0,11.38-2.64,15.06-7.24l0.05,0.04C37.54,41.7,32.03,44.35,26.13,44.35"/>
	<path class="st0" d="M17.12,19.82c0,0-1.03-2.8-1.01-2.78c0.02,0.02,1.24,0.18,2.41,0.85c0,0-1.18-0.29-1.88-0.37
		C16.64,17.52,17.07,19.07,17.12,19.82"/>
	<path class="st0" d="M35.15,19.82c0,0,1.03-2.8,1.01-2.78c-0.02,0.02-1.24,0.18-2.41,0.85c0,0,1.18-0.29,1.88-0.37
		C35.63,17.52,35.2,19.07,35.15,19.82"/>
	<path class="st0" d="M19.01,27.1c0,0,0.25,0.8,0.28,1.51l1.62,0.05l-1.32-0.3C19.58,28.36,19.43,27.7,19.01,27.1"/>
	<path class="st0" d="M33.21,27.1c0,0-0.25,0.8-0.28,1.51l-1.62,0.05l1.32-0.3C32.64,28.36,32.8,27.7,33.21,27.1"/>
	<path class="st3" d="M23.92,36.11h0.73l-0.32-1.14L23.92,36.11z M24.7,36.34h-0.86l-0.07,0.19c-0.02,0.05-0.03,0.11-0.05,0.16
		c-0.01,0.05-0.02,0.1-0.02,0.16c0,0.13,0.07,0.2,0.21,0.21v0.13h-0.86v-0.13c0.05-0.01,0.09-0.02,0.13-0.05
		c0.04-0.03,0.07-0.07,0.1-0.12c0.03-0.05,0.06-0.12,0.1-0.22l0.84-2.25h0.54l0.67,2.26c0.03,0.1,0.05,0.17,0.07,0.22
		c0.02,0.04,0.05,0.08,0.08,0.1c0.03,0.03,0.08,0.05,0.14,0.06v0.13h-1.12v-0.13c0.07-0.01,0.12-0.03,0.16-0.06
		c0.03-0.03,0.05-0.07,0.05-0.13c0-0.04,0-0.09-0.01-0.14c-0.01-0.05-0.02-0.12-0.05-0.19L24.7,36.34z"/>
	<path class="st3" d="M26.81,36.69c0,0.05,0,0.09,0,0.13c0,0.04,0.01,0.07,0.02,0.1c0.01,0.03,0.02,0.05,0.04,0.06
		c0.02,0.02,0.04,0.03,0.06,0.05c0.03,0.01,0.06,0.02,0.1,0.03v0.13h-1.06v-0.13c0.05-0.01,0.09-0.03,0.12-0.04
		c0.03-0.02,0.05-0.04,0.06-0.07c0.01-0.03,0.02-0.06,0.03-0.1c0-0.04,0.01-0.1,0.01-0.16v-1.74c0-0.06,0-0.12,0-0.16
		c0-0.04-0.01-0.08-0.03-0.1c-0.01-0.03-0.04-0.05-0.06-0.07c-0.03-0.02-0.07-0.03-0.12-0.04v-0.13h1.06v0.13
		c-0.06,0.02-0.1,0.03-0.12,0.05c-0.03,0.02-0.05,0.04-0.06,0.06c-0.01,0.02-0.02,0.06-0.03,0.1c-0.01,0.04-0.01,0.1-0.01,0.17
		V36.69z"/>
	<path class="st3" d="M27.66,36.52c0.03,0.16,0.09,0.28,0.17,0.36c0.08,0.08,0.19,0.12,0.35,0.12c0.08,0,0.15-0.01,0.21-0.04
		c0.06-0.03,0.11-0.07,0.15-0.13c0.04-0.06,0.06-0.13,0.06-0.23c0-0.08-0.02-0.16-0.05-0.22c-0.03-0.06-0.08-0.12-0.15-0.17
		c-0.07-0.06-0.16-0.11-0.29-0.18c-0.11-0.05-0.2-0.11-0.29-0.16c-0.08-0.06-0.16-0.12-0.22-0.19c-0.06-0.07-0.11-0.14-0.14-0.22
		c-0.03-0.08-0.05-0.17-0.05-0.27c0-0.17,0.04-0.31,0.12-0.42c0.08-0.12,0.2-0.2,0.36-0.26c0.16-0.06,0.34-0.09,0.54-0.09
		c0.12,0,0.23,0.01,0.34,0.02c0.11,0.01,0.23,0.04,0.37,0.07v0.59h-0.28c-0.03-0.11-0.06-0.19-0.1-0.25
		c-0.04-0.06-0.09-0.11-0.15-0.14c-0.06-0.03-0.13-0.04-0.22-0.04c-0.08,0-0.15,0.01-0.21,0.04c-0.06,0.03-0.11,0.07-0.14,0.12
		c-0.03,0.05-0.05,0.12-0.05,0.19c0,0.08,0.02,0.15,0.05,0.2s0.08,0.11,0.15,0.17c0.07,0.05,0.17,0.12,0.31,0.19
		c0.17,0.09,0.3,0.17,0.39,0.25c0.1,0.08,0.16,0.17,0.21,0.27c0.05,0.1,0.07,0.21,0.07,0.34c0,0.17-0.04,0.31-0.12,0.43
		c-0.08,0.12-0.19,0.22-0.34,0.28c-0.15,0.07-0.32,0.1-0.51,0.1c-0.14,0-0.28-0.01-0.43-0.02c-0.15-0.02-0.29-0.04-0.42-0.07v-0.62
		H27.66z"/>
	<path class="st4" d="M26.13,2.29C13.6,2.29,3.42,12.48,3.42,25c0,12.52,10.19,22.71,22.71,22.71S48.83,37.52,48.83,25
		C48.83,12.48,38.65,2.29,26.13,2.29 M26.13,48.17c-3.13,0-6.16-0.61-9.02-1.82c-2.76-1.17-5.24-2.84-7.36-4.96
		c-2.13-2.13-3.8-4.61-4.96-7.36C3.57,31.16,2.96,28.13,2.96,25c0-3.13,0.61-6.16,1.82-9.02c1.17-2.76,2.84-5.24,4.96-7.36
		c2.13-2.13,4.61-3.8,7.36-4.96c2.86-1.21,5.89-1.82,9.02-1.82c3.13,0,6.16,0.61,9.02,1.82c2.76,1.17,5.24,2.84,7.36,4.96
		c2.13,2.13,3.8,4.6,4.96,7.36c1.21,2.86,1.82,5.89,1.82,9.02c0,3.13-0.61,6.16-1.82,9.02c-1.17,2.76-2.84,5.24-4.96,7.36
		c-2.13,2.13-4.61,3.8-7.36,4.96C32.29,47.56,29.25,48.17,26.13,48.17"/>
	<path class="st4" d="M26.13,6.47C15.91,6.47,7.6,14.78,7.6,25c0,10.22,8.31,18.53,18.53,18.53S44.66,35.22,44.66,25
		C44.66,14.78,36.34,6.47,26.13,6.47 M26.13,43.79c-5.02,0-9.74-1.95-13.29-5.5c-3.55-3.55-5.5-8.27-5.5-13.29
		c0-5.02,1.95-9.74,5.5-13.29c3.55-3.55,8.27-5.5,13.29-5.5c5.02,0,9.74,1.95,13.29,5.5c3.55,3.55,5.5,8.27,5.5,13.29
		c0,5.02-1.95,9.74-5.5,13.29C35.87,41.84,31.15,43.79,26.13,43.79"/>
	<path class="st4" d="M26.13,8.01C16.76,8.01,9.14,15.63,9.14,25c0,9.37,7.62,16.99,16.99,16.99S43.11,34.37,43.11,25
		C43.11,15.63,35.49,8.01,26.13,8.01 M26.13,42.58c-4.69,0-9.11-1.83-12.43-5.15C10.38,34.11,8.55,29.7,8.55,25
		c0-4.69,1.83-9.11,5.15-12.43c3.32-3.32,7.73-5.15,12.43-5.15c4.7,0,9.11,1.83,12.43,5.15c3.32,3.32,5.15,7.73,5.15,12.43
		c0,4.7-1.83,9.11-5.15,12.43C35.24,40.75,30.82,42.58,26.13,42.58"/>
	<path class="st0" d="M7.39,29.76l-0.13,0.03c-0.02-0.05-0.04-0.1-0.07-0.13c-0.02-0.03-0.05-0.05-0.08-0.06
		c-0.03-0.01-0.07-0.01-0.12-0.01c-0.05,0.01-0.1,0.02-0.17,0.03l-2.03,0.45l0.04,0.16c0.02,0.08,0.04,0.14,0.07,0.18
		c0.03,0.04,0.07,0.07,0.11,0.09c0.05,0.02,0.11,0.04,0.18,0.05c0.07,0.01,0.14,0.01,0.21,0.01l0.06,0.28l-0.71,0.16l-0.53-2.4
		l0.71-0.16L5,28.73c-0.09,0.05-0.15,0.08-0.19,0.11c-0.04,0.02-0.07,0.05-0.1,0.07c-0.03,0.02-0.05,0.05-0.06,0.07
		c-0.02,0.02-0.03,0.05-0.03,0.08C4.6,29.09,4.6,29.12,4.6,29.16c0,0.04,0.01,0.08,0.02,0.14l0.03,0.15l2.03-0.45
		c0.07-0.02,0.13-0.03,0.16-0.04c0.04-0.01,0.07-0.03,0.09-0.04c0.02-0.02,0.04-0.03,0.05-0.05C6.99,28.84,7,28.81,7,28.78
		c0.01-0.03,0.01-0.07,0-0.12l0.13-0.03L7.39,29.76z"/>
	<path class="st0" d="M5.11,27.05c-0.12-0.12-0.21-0.22-0.27-0.32c-0.05-0.1-0.09-0.19-0.09-0.3c-0.01-0.15,0.01-0.27,0.06-0.36
		c0.05-0.09,0.12-0.15,0.23-0.2c0.1-0.05,0.24-0.08,0.4-0.09l0.76-0.06c0.06-0.01,0.12-0.01,0.17-0.02c0.05-0.01,0.1-0.02,0.13-0.03
		c0.03-0.01,0.06-0.02,0.07-0.04c0.02-0.02,0.03-0.04,0.05-0.07c0.01-0.03,0.02-0.06,0.03-0.1l0.14-0.01l0.08,1.01l-0.14,0.01
		c-0.02-0.06-0.05-0.11-0.08-0.13c-0.03-0.02-0.07-0.03-0.12-0.04c-0.05,0-0.14,0-0.28,0.01L5.7,26.36
		c-0.14,0.01-0.25,0.02-0.32,0.04c-0.08,0.02-0.13,0.04-0.17,0.06c-0.04,0.02-0.07,0.06-0.09,0.09C5.1,26.59,5.1,26.64,5.1,26.69
		c0,0.05,0.02,0.11,0.06,0.16c0.04,0.05,0.09,0.1,0.14,0.13c0.06,0.03,0.12,0.05,0.18,0.04l0.81-0.07c0.08-0.01,0.14-0.01,0.18-0.02
		c0.04-0.01,0.07-0.01,0.1-0.02c0.02-0.01,0.04-0.01,0.06-0.02c0.02-0.01,0.03-0.02,0.05-0.03c0.01-0.01,0.03-0.03,0.04-0.06
		c0.01-0.02,0.02-0.06,0.03-0.1l0.14-0.01l0.08,1.02l-0.14,0.01c-0.01-0.04-0.03-0.07-0.04-0.09c-0.02-0.02-0.03-0.04-0.05-0.05
		c-0.02-0.01-0.04-0.02-0.07-0.03c-0.03-0.01-0.07-0.01-0.11-0.01c-0.05,0-0.12,0.01-0.21,0.01L4.73,27.7
		c-0.12,0.01-0.21,0.02-0.26,0.02c-0.06,0.01-0.1,0.02-0.14,0.02c-0.04,0.01-0.07,0.02-0.09,0.04c-0.02,0.02-0.04,0.04-0.05,0.06
		c-0.01,0.03-0.02,0.07-0.03,0.13l-0.14,0.01l-0.08-0.57l-0.02-0.26L5.11,27.05L5.11,27.05z"/>
	<path class="st0" d="M5.59,23.77c-0.21,0-0.37,0.02-0.48,0.06C5,23.88,4.95,23.96,4.94,24.07c0,0.11,0.05,0.19,0.15,0.26
		c0.11,0.07,0.26,0.11,0.46,0.13L5.59,23.77z M6.48,23.25c0.14,0.15,0.24,0.29,0.3,0.43c0.06,0.14,0.08,0.3,0.07,0.48
		c-0.01,0.32-0.11,0.56-0.3,0.72c-0.18,0.16-0.45,0.23-0.8,0.21c-0.22-0.01-0.42-0.06-0.58-0.15c-0.16-0.09-0.28-0.21-0.36-0.37
		c-0.08-0.16-0.11-0.34-0.1-0.54c0.01-0.13,0.02-0.24,0.06-0.33c0.03-0.09,0.08-0.17,0.13-0.24c0.05-0.07,0.12-0.12,0.2-0.16
		c0.09-0.05,0.19-0.08,0.3-0.11c0.12-0.02,0.26-0.03,0.42-0.03l-0.05,1.32c0.25,0.01,0.44-0.03,0.56-0.11
		c0.12-0.08,0.19-0.22,0.19-0.4c0-0.11-0.01-0.2-0.05-0.29c-0.04-0.09-0.1-0.18-0.2-0.28L6.48,23.25z"/>
	<path class="st0" d="M6.3,19.96l0.2-0.72l-1.22,0L6.3,19.96z M6.75,19.25L6.51,20.1l0.17,0.12c0.05,0.03,0.1,0.06,0.14,0.09
		c0.05,0.03,0.1,0.05,0.15,0.06c0.13,0.04,0.22-0.01,0.27-0.15l0.13,0.04l-0.24,0.86l-0.13-0.04c0.01-0.05,0-0.1-0.02-0.15
		c-0.02-0.05-0.05-0.09-0.09-0.14c-0.04-0.04-0.11-0.1-0.19-0.16l-1.99-1.46l0.15-0.54l2.43-0.03c0.11,0,0.19-0.01,0.23-0.01
		c0.05-0.01,0.09-0.02,0.12-0.05c0.03-0.02,0.07-0.06,0.09-0.12l0.13,0.04l-0.31,1.11l-0.13-0.04c0.01-0.07,0.01-0.13-0.01-0.17
		c-0.02-0.04-0.06-0.07-0.12-0.09c-0.04-0.01-0.09-0.02-0.14-0.02c-0.05-0.01-0.12-0.01-0.21-0.01L6.75,19.25z"/>
	<path class="st0" d="M6.65,16.81l0.02-0.02c-0.05-0.16-0.08-0.3-0.08-0.42c0-0.11,0.02-0.22,0.07-0.31
		c0.04-0.09,0.09-0.16,0.15-0.21c0.05-0.05,0.11-0.09,0.18-0.11c0.07-0.02,0.14-0.03,0.23-0.02c-0.06-0.18-0.09-0.33-0.09-0.45
		c0-0.12,0.02-0.23,0.07-0.33c0.05-0.1,0.1-0.18,0.16-0.23c0.06-0.05,0.12-0.09,0.2-0.11c0.08-0.02,0.16-0.01,0.25,0.01
		c0.09,0.02,0.2,0.06,0.31,0.11l0.69,0.33c0.06,0.03,0.11,0.05,0.16,0.07c0.05,0.02,0.09,0.03,0.12,0.04c0.03,0.01,0.06,0.01,0.09,0
		s0.05-0.02,0.07-0.03c0.02-0.02,0.05-0.04,0.07-0.07l0.12,0.06l-0.43,0.91l-0.12-0.06c0.01-0.06,0.01-0.11,0-0.15
		c-0.02-0.03-0.05-0.07-0.09-0.1c-0.04-0.03-0.12-0.07-0.24-0.13l-0.5-0.24c-0.11-0.05-0.21-0.09-0.28-0.12
		c-0.07-0.03-0.14-0.04-0.19-0.04c-0.05,0-0.09,0.01-0.12,0.03c-0.03,0.02-0.06,0.06-0.08,0.1c-0.02,0.03-0.02,0.07-0.03,0.1
		c0,0.03,0,0.07,0.01,0.11c0.01,0.04,0.02,0.07,0.03,0.1c0.01,0.03,0.03,0.06,0.05,0.08c0.02,0.02,0.05,0.05,0.08,0.07
		c0.03,0.02,0.08,0.05,0.16,0.08l0.61,0.29c0.09,0.04,0.15,0.07,0.2,0.09c0.05,0.02,0.09,0.03,0.12,0.03c0.03,0,0.06,0,0.09-0.02
		c0.03-0.01,0.06-0.04,0.09-0.08l0.12,0.06l-0.43,0.9l-0.12-0.06c0.01-0.06,0.01-0.11,0-0.15c-0.02-0.03-0.05-0.07-0.09-0.1
		C8.21,16.82,8.12,16.77,8,16.72l-0.5-0.24c-0.08-0.04-0.15-0.07-0.21-0.1c-0.06-0.02-0.11-0.04-0.15-0.05
		c-0.04-0.01-0.07-0.01-0.11-0.01c-0.03,0-0.06,0.01-0.09,0.01c-0.02,0.01-0.05,0.02-0.07,0.04c-0.02,0.02-0.04,0.05-0.05,0.08
		C6.8,16.5,6.8,16.56,6.8,16.62c0,0.06,0.02,0.13,0.06,0.19c0.03,0.06,0.08,0.1,0.14,0.13l0.73,0.35c0.12,0.06,0.2,0.09,0.25,0.11
		c0.05,0.02,0.09,0.02,0.13,0.01c0.04-0.01,0.08-0.04,0.12-0.09l0.12,0.06l-0.43,0.9L7.8,18.21c0.01-0.07,0.01-0.12,0-0.16
		c-0.02-0.04-0.04-0.07-0.09-0.1c-0.04-0.03-0.12-0.07-0.24-0.13L6.7,17.46c-0.09-0.04-0.16-0.07-0.21-0.09
		c-0.05-0.02-0.09-0.03-0.12-0.03c-0.03,0-0.06,0.01-0.09,0.02c-0.03,0.02-0.06,0.05-0.1,0.11l-0.13-0.06l0.23-0.52l0.11-0.24
		L6.65,16.81z"/>
	<path class="st0" d="M9.34,13.1c-0.18-0.11-0.33-0.18-0.44-0.2c-0.11-0.02-0.2,0.02-0.27,0.11c-0.06,0.09-0.06,0.19-0.01,0.3
		c0.05,0.11,0.16,0.23,0.32,0.36L9.34,13.1z M10.38,13.13c0.04,0.2,0.05,0.38,0.03,0.53c-0.03,0.15-0.09,0.3-0.19,0.45
		c-0.18,0.27-0.39,0.42-0.63,0.45c-0.24,0.03-0.5-0.05-0.79-0.24c-0.19-0.13-0.32-0.27-0.41-0.43c-0.09-0.16-0.12-0.33-0.1-0.5
		c0.02-0.17,0.08-0.35,0.2-0.52c0.07-0.1,0.15-0.19,0.22-0.25c0.08-0.06,0.16-0.11,0.24-0.13c0.08-0.03,0.16-0.04,0.25-0.03
		c0.1,0.01,0.21,0.03,0.31,0.07c0.11,0.04,0.23,0.11,0.37,0.2l-0.75,1.09c0.21,0.14,0.39,0.21,0.53,0.2
		c0.15-0.01,0.27-0.08,0.38-0.23c0.06-0.09,0.1-0.18,0.11-0.27c0.02-0.09,0.01-0.21-0.02-0.35L10.38,13.13z"/>
	<path class="st0" d="M10.1,11.29l0.02-0.02c-0.02-0.15-0.02-0.29,0.01-0.41c0.03-0.12,0.09-0.22,0.17-0.32
		c0.06-0.06,0.12-0.13,0.19-0.18l0.44,0.37l-0.25,0.29c-0.08-0.03-0.14-0.05-0.2-0.05c-0.06,0-0.11,0.03-0.15,0.07
		c-0.02,0.02-0.03,0.06-0.04,0.1c-0.01,0.04-0.01,0.08-0.01,0.13c0.01,0.05,0.02,0.09,0.04,0.12c0.02,0.03,0.04,0.06,0.06,0.09
		c0.02,0.03,0.06,0.06,0.12,0.11L11,12.03c0.1,0.09,0.17,0.14,0.22,0.17c0.05,0.03,0.09,0.04,0.13,0.04c0.04,0,0.09-0.03,0.14-0.07
		l0.1,0.09l-0.67,0.78l-0.1-0.09c0.03-0.06,0.04-0.11,0.04-0.15c-0.01-0.04-0.02-0.08-0.06-0.12c-0.03-0.04-0.1-0.1-0.2-0.19
		l-0.65-0.56c-0.08-0.07-0.14-0.11-0.18-0.14c-0.04-0.03-0.08-0.05-0.11-0.06c-0.03-0.01-0.06-0.01-0.09,0
		c-0.03,0.01-0.07,0.03-0.13,0.07l-0.11-0.09l0.36-0.44l0.17-0.2L10.1,11.29z"/>
	<path class="st0" d="M12.16,11.45c0.04-0.06,0.05-0.11,0.05-0.15c0-0.04-0.02-0.08-0.05-0.12c-0.03-0.04-0.09-0.11-0.18-0.2
		l-0.68-0.69c-0.05-0.05-0.09-0.09-0.12-0.11c-0.03-0.03-0.07-0.04-0.1-0.05c-0.03-0.01-0.06,0-0.09,0.01
		c-0.03,0.01-0.07,0.03-0.11,0.06l-0.1-0.1l0.4-0.41l0.19-0.18l1.04,1.06c0.05,0.06,0.1,0.1,0.13,0.13
		c0.03,0.03,0.06,0.05,0.07,0.06c0.02,0.01,0.04,0.02,0.06,0.03c0.02,0.01,0.04,0.01,0.06,0.01c0.02,0,0.04,0,0.07-0.01
		s0.06-0.02,0.09-0.04l0.1,0.1l-0.73,0.71L12.16,11.45z M10.79,8.92l0.36,0.36l-0.41,0.4l-0.36-0.37L10.79,8.92z"/>
	<path class="st0" d="M14.12,9.17l0.25,0.05c-0.02,0.19-0.06,0.35-0.12,0.47c-0.06,0.13-0.15,0.24-0.27,0.33
		c-0.23,0.19-0.47,0.27-0.7,0.23c-0.24-0.04-0.46-0.19-0.67-0.45c-0.14-0.18-0.24-0.36-0.27-0.54c-0.04-0.18-0.02-0.36,0.05-0.53
		c0.07-0.17,0.19-0.32,0.35-0.45c0.09-0.07,0.18-0.14,0.28-0.2c0.1-0.06,0.19-0.11,0.28-0.14l0.32,0.39L13.28,8.6
		c-0.1-0.09-0.18-0.14-0.25-0.16c-0.07-0.02-0.14-0.01-0.2,0.04c-0.04,0.03-0.07,0.07-0.09,0.12c-0.02,0.05-0.02,0.11-0.01,0.18
		c0.01,0.07,0.05,0.15,0.1,0.25c0.05,0.1,0.13,0.21,0.23,0.33c0.1,0.13,0.2,0.22,0.3,0.29c0.09,0.07,0.19,0.1,0.28,0.11
		c0.09,0,0.18-0.03,0.27-0.1c0.06-0.05,0.11-0.11,0.14-0.19C14.08,9.4,14.1,9.3,14.12,9.17"/>
	<path class="st0" d="M15.23,7.86c-0.18,0.12-0.29,0.24-0.34,0.36c-0.05,0.12-0.03,0.24,0.05,0.36c0.05,0.07,0.1,0.11,0.17,0.13
		c0.06,0.01,0.13,0,0.2-0.05c0.05-0.03,0.09-0.08,0.12-0.14c0.03-0.06,0.04-0.12,0.04-0.19c0-0.07-0.02-0.13-0.06-0.18L15.23,7.86z
		 M15.68,8.42l-0.03,0.01c-0.03,0.16-0.08,0.28-0.15,0.38c-0.06,0.1-0.15,0.18-0.25,0.25c-0.1,0.07-0.2,0.1-0.3,0.11
		c-0.1,0.01-0.19,0-0.27-0.04c-0.08-0.04-0.15-0.1-0.2-0.19c-0.11-0.17-0.11-0.36-0.01-0.57c0.1-0.21,0.32-0.44,0.65-0.68
		l-0.11-0.17c-0.07-0.11-0.14-0.18-0.2-0.23c-0.06-0.04-0.12-0.06-0.18-0.06c-0.05,0-0.11,0.02-0.16,0.05
		c-0.05,0.03-0.09,0.07-0.12,0.12c-0.03,0.04-0.04,0.1-0.04,0.17c0,0.07,0.03,0.16,0.07,0.26l-0.33,0.22l-0.21-0.32
		c0.08-0.12,0.14-0.21,0.2-0.28c0.05-0.07,0.11-0.14,0.17-0.2c0.06-0.06,0.11-0.11,0.16-0.16c0.05-0.04,0.1-0.08,0.16-0.12
		c0.14-0.09,0.27-0.15,0.37-0.16c0.11-0.02,0.21,0,0.31,0.06c0.1,0.06,0.19,0.16,0.29,0.31l0.44,0.68C16,7.94,16.04,8,16.07,8.04
		c0.03,0.04,0.06,0.07,0.08,0.08c0.02,0.02,0.04,0.03,0.06,0.03c0.02,0,0.04,0.01,0.06,0c0.02,0,0.06-0.01,0.11-0.03l0.07,0.11
		l-0.65,0.42L15.68,8.42z"/>
	<path class="st0" d="M18.76,7.1l-0.91,0.44l-0.06-0.12c0.05-0.04,0.08-0.08,0.09-0.12c0.01-0.04,0.01-0.08-0.01-0.13
		c-0.01-0.05-0.05-0.13-0.11-0.25l-0.24-0.5c-0.04-0.09-0.08-0.16-0.11-0.22c-0.03-0.05-0.06-0.1-0.09-0.13
		c-0.03-0.03-0.05-0.06-0.08-0.07c-0.03-0.02-0.05-0.03-0.08-0.04c-0.02-0.01-0.05-0.01-0.08-0.01c-0.03,0-0.06,0.01-0.09,0.03
		C16.95,6,16.91,6.04,16.87,6.09c-0.04,0.05-0.06,0.12-0.07,0.18c-0.01,0.07,0,0.13,0.03,0.19l0.35,0.72
		c0.06,0.12,0.1,0.2,0.13,0.24c0.03,0.04,0.06,0.07,0.1,0.09c0.04,0.02,0.09,0.02,0.15,0l0.06,0.12l-0.91,0.44l-0.06-0.12
		c0.05-0.05,0.08-0.09,0.09-0.12c0.01-0.04,0.01-0.08,0-0.13c-0.01-0.05-0.05-0.13-0.11-0.25l-0.37-0.77
		c-0.04-0.09-0.08-0.16-0.1-0.2c-0.02-0.04-0.05-0.07-0.07-0.1C16.06,6.37,16.03,6.35,16,6.35c-0.03-0.01-0.08,0-0.15,0.02
		l-0.06-0.13l0.51-0.26l0.24-0.11l0.1,0.28l0.02-0.01c0.04-0.11,0.09-0.19,0.13-0.26c0.04-0.07,0.09-0.13,0.14-0.18
		c0.05-0.05,0.12-0.1,0.19-0.13c0.1-0.05,0.19-0.08,0.28-0.08c0.08,0,0.16,0.01,0.23,0.05c0.07,0.04,0.13,0.09,0.19,0.16
		c0.06,0.07,0.11,0.16,0.16,0.27l0.33,0.69c0.03,0.06,0.05,0.11,0.08,0.15c0.03,0.05,0.05,0.08,0.07,0.11
		c0.02,0.02,0.04,0.04,0.07,0.06c0.02,0.01,0.05,0.02,0.08,0.02c0.03,0,0.06,0,0.1-0.01L18.76,7.1z"/>
	<path class="st0" d="M21.68,5.66c0.01,0.05,0.02,0.09,0.04,0.13c0.01,0.04,0.03,0.07,0.04,0.1c0.01,0.02,0.03,0.04,0.05,0.06
		c0.02,0.01,0.04,0.02,0.07,0.03c0.03,0.01,0.07,0.01,0.11,0.01l0.03,0.13l-1.06,0.26l-0.03-0.13c0.05-0.03,0.08-0.05,0.11-0.07
		c0.03-0.02,0.04-0.05,0.05-0.08c0.01-0.03,0.01-0.07,0-0.11c-0.01-0.04-0.02-0.1-0.03-0.16l-0.43-1.75
		C20.61,4,20.59,3.94,20.58,3.9c-0.01-0.04-0.03-0.07-0.05-0.1c-0.02-0.02-0.05-0.04-0.08-0.05c-0.03-0.01-0.08-0.01-0.13-0.01
		l-0.03-0.13l1.06-0.26l0.03,0.13c-0.05,0.03-0.09,0.05-0.11,0.08c-0.02,0.02-0.04,0.05-0.04,0.08c-0.01,0.03-0.01,0.06,0,0.1
		c0,0.04,0.02,0.1,0.03,0.17L21.68,5.66z"/>
	<path class="st0" d="M24.65,5.7l-1,0.14L23.63,5.7c0.06-0.02,0.1-0.05,0.12-0.09c0.02-0.03,0.03-0.07,0.03-0.13
		c0-0.05-0.01-0.14-0.02-0.27l-0.07-0.55c-0.01-0.1-0.03-0.18-0.04-0.24c-0.01-0.06-0.03-0.11-0.04-0.15
		c-0.01-0.04-0.03-0.07-0.05-0.1c-0.02-0.02-0.04-0.04-0.06-0.06c-0.02-0.01-0.05-0.02-0.07-0.03c-0.03,0-0.06,0-0.1,0
		c-0.05,0.01-0.1,0.03-0.16,0.07c-0.05,0.04-0.09,0.09-0.12,0.15C23.01,4.38,23,4.44,23.01,4.51l0.11,0.8
		c0.02,0.13,0.03,0.22,0.05,0.27c0.02,0.05,0.04,0.09,0.07,0.11c0.03,0.03,0.08,0.04,0.14,0.05l0.02,0.14l-1,0.14l-0.02-0.14
		c0.06-0.03,0.11-0.06,0.13-0.09c0.02-0.03,0.03-0.07,0.04-0.12c0-0.05-0.01-0.14-0.02-0.27l-0.11-0.85
		c-0.01-0.1-0.03-0.18-0.04-0.23c-0.01-0.05-0.02-0.09-0.04-0.11c-0.02-0.03-0.04-0.05-0.07-0.06c-0.03-0.02-0.08-0.02-0.15-0.03
		l-0.02-0.14l0.56-0.09l0.26-0.04l0.01,0.3l0.03,0c0.07-0.09,0.14-0.16,0.2-0.21c0.06-0.05,0.12-0.1,0.19-0.13
		c0.07-0.03,0.14-0.06,0.22-0.07c0.11-0.02,0.21-0.01,0.29,0.01c0.08,0.02,0.15,0.06,0.2,0.12c0.05,0.06,0.1,0.13,0.13,0.21
		c0.03,0.09,0.06,0.19,0.07,0.31l0.1,0.76c0.01,0.06,0.02,0.12,0.03,0.17c0.01,0.05,0.02,0.09,0.03,0.12
		c0.01,0.03,0.03,0.05,0.04,0.07c0.02,0.02,0.04,0.03,0.07,0.04c0.03,0.01,0.06,0.02,0.1,0.02L24.65,5.7z"/>
	<path class="st0" d="M26.39,5.42c-0.12,0.11-0.23,0.18-0.33,0.23c-0.1,0.05-0.2,0.07-0.31,0.07c-0.21,0.01-0.36-0.05-0.47-0.15
		c-0.11-0.11-0.16-0.28-0.17-0.5l-0.03-1.17L24.82,3.9l0-0.14C24.9,3.74,24.96,3.72,25,3.69c0.04-0.03,0.07-0.07,0.09-0.11
		c0.02-0.05,0.04-0.11,0.05-0.18c0.01-0.08,0.02-0.17,0.02-0.28l0.5-0.01l0.02,0.52l0.59-0.02l0.01,0.26l-0.59,0.02l0.03,0.94
		c0,0.16,0.02,0.27,0.03,0.35c0.02,0.07,0.04,0.13,0.08,0.16c0.04,0.03,0.08,0.05,0.13,0.05c0.04,0,0.07-0.01,0.1-0.01
		c0.03-0.01,0.06-0.02,0.1-0.04c0.03-0.02,0.07-0.05,0.11-0.08L26.39,5.42z"/>
	<path class="st0" d="M27.9,4.5c0.01-0.21-0.01-0.37-0.05-0.48c-0.04-0.11-0.12-0.16-0.23-0.17c-0.11-0.01-0.2,0.04-0.27,0.15
		c-0.07,0.1-0.12,0.26-0.14,0.46L27.9,4.5z M28.4,5.41c-0.15,0.14-0.3,0.24-0.44,0.29c-0.14,0.05-0.3,0.07-0.48,0.06
		c-0.32-0.02-0.56-0.13-0.71-0.31c-0.15-0.19-0.21-0.46-0.19-0.8c0.02-0.22,0.07-0.42,0.16-0.57c0.1-0.16,0.22-0.27,0.38-0.35
		c0.16-0.07,0.34-0.1,0.55-0.09c0.13,0.01,0.24,0.03,0.33,0.07c0.09,0.04,0.17,0.08,0.24,0.14c0.06,0.06,0.12,0.12,0.16,0.2
		c0.05,0.09,0.08,0.19,0.1,0.31c0.02,0.12,0.03,0.26,0.02,0.42l-1.32-0.09c-0.02,0.25,0.02,0.44,0.1,0.56
		c0.08,0.12,0.21,0.19,0.39,0.21c0.11,0.01,0.2-0.01,0.29-0.04c0.09-0.03,0.18-0.1,0.29-0.19L28.4,5.41z"/>
	<path class="st0" d="M29.83,4.24l0.03,0.01c0.12-0.1,0.24-0.17,0.35-0.2c0.11-0.03,0.23-0.04,0.36-0.02
		c0.08,0.01,0.17,0.04,0.26,0.07l-0.1,0.57L30.35,4.6c-0.01-0.08-0.03-0.15-0.06-0.2c-0.03-0.05-0.08-0.08-0.14-0.09
		c-0.03-0.01-0.07,0-0.1,0.01c-0.04,0.01-0.08,0.03-0.11,0.06c-0.04,0.03-0.06,0.06-0.08,0.09c-0.02,0.03-0.03,0.07-0.04,0.1
		c-0.01,0.03-0.02,0.09-0.03,0.16l-0.12,0.65c-0.02,0.13-0.03,0.22-0.03,0.28c0,0.05,0.01,0.1,0.04,0.13
		c0.02,0.03,0.07,0.06,0.13,0.09l-0.02,0.14l-1.01-0.18l0.02-0.14c0.07-0.01,0.12-0.02,0.15-0.05C28.96,5.64,28.98,5.6,29,5.55
		c0.02-0.05,0.04-0.14,0.06-0.27l0.15-0.84c0.02-0.1,0.03-0.18,0.04-0.23c0.01-0.05,0-0.09,0-0.12c-0.01-0.03-0.02-0.06-0.05-0.08
		c-0.02-0.02-0.07-0.05-0.13-0.07l0.02-0.14l0.57,0.08l0.26,0.05L29.83,4.24z"/>
	<path class="st0" d="M32.87,6.85L31.9,6.56l0.04-0.13c0.07,0,0.11,0,0.15-0.03c0.03-0.02,0.06-0.05,0.08-0.1
		c0.02-0.05,0.05-0.13,0.09-0.26l0.16-0.53c0.03-0.09,0.05-0.17,0.06-0.23c0.01-0.06,0.02-0.11,0.03-0.15c0-0.04,0-0.08-0.01-0.11
		c-0.01-0.03-0.02-0.06-0.03-0.08c-0.01-0.02-0.03-0.04-0.05-0.06c-0.02-0.02-0.05-0.03-0.09-0.04c-0.05-0.02-0.11-0.02-0.17,0
		c-0.06,0.01-0.12,0.04-0.18,0.09c-0.05,0.04-0.09,0.1-0.11,0.16l-0.23,0.77c-0.04,0.13-0.06,0.22-0.07,0.27
		c-0.01,0.05,0,0.1,0.01,0.13c0.02,0.04,0.05,0.07,0.11,0.1l-0.04,0.13L30.7,6.19l0.04-0.13c0.07,0,0.12-0.01,0.15-0.03
		c0.03-0.02,0.06-0.05,0.08-0.1C31,5.89,31.03,5.8,31.07,5.68l0.25-0.82c0.03-0.1,0.05-0.17,0.06-0.22
		c0.01-0.05,0.01-0.09,0.01-0.12c0-0.03-0.02-0.06-0.04-0.09c-0.02-0.03-0.06-0.05-0.12-0.09l0.04-0.14l0.55,0.15l0.25,0.08
		l-0.12,0.28l0.02,0.01c0.11-0.05,0.2-0.08,0.27-0.11c0.08-0.02,0.15-0.04,0.23-0.04c0.08,0,0.15,0.01,0.23,0.03
		c0.11,0.03,0.19,0.08,0.26,0.13c0.06,0.05,0.11,0.12,0.13,0.19c0.03,0.07,0.04,0.16,0.03,0.25c-0.01,0.09-0.03,0.2-0.06,0.31
		l-0.22,0.73c-0.02,0.06-0.03,0.11-0.05,0.17c-0.01,0.05-0.02,0.09-0.02,0.13c0,0.03,0,0.06,0.01,0.08
		c0.01,0.02,0.02,0.05,0.04,0.07c0.02,0.02,0.05,0.04,0.08,0.06L32.87,6.85z"/>
	<path class="st0" d="M34.62,6.55c-0.2-0.08-0.36-0.11-0.49-0.09c-0.12,0.03-0.22,0.11-0.28,0.24c-0.04,0.08-0.04,0.15-0.02,0.21
		c0.02,0.06,0.08,0.11,0.15,0.14c0.06,0.03,0.12,0.04,0.19,0.03c0.07-0.01,0.13-0.03,0.18-0.07c0.05-0.04,0.09-0.09,0.12-0.15
		L34.62,6.55z M34.39,7.23l-0.02-0.02c-0.15,0.05-0.28,0.08-0.4,0.08c-0.12,0-0.23-0.02-0.34-0.07c-0.11-0.05-0.19-0.11-0.26-0.19
		c-0.06-0.08-0.1-0.16-0.11-0.25c-0.01-0.09,0.01-0.18,0.05-0.27c0.08-0.19,0.24-0.29,0.47-0.32c0.23-0.02,0.54,0.03,0.93,0.17
		l0.08-0.18c0.05-0.12,0.08-0.21,0.08-0.29c0-0.08-0.01-0.14-0.04-0.18c-0.03-0.04-0.07-0.08-0.13-0.11
		c-0.06-0.03-0.11-0.04-0.16-0.04c-0.05,0-0.11,0.02-0.17,0.06c-0.06,0.04-0.12,0.11-0.18,0.2l-0.36-0.16l0.16-0.35
		c0.14,0,0.25,0,0.34,0.01c0.09,0.01,0.18,0.02,0.26,0.03c0.08,0.02,0.16,0.03,0.22,0.05c0.06,0.02,0.12,0.04,0.18,0.07
		c0.15,0.07,0.27,0.14,0.34,0.23c0.07,0.08,0.11,0.18,0.12,0.29c0,0.11-0.03,0.25-0.1,0.41L35,7.16c-0.04,0.08-0.07,0.15-0.08,0.2
		c-0.02,0.05-0.03,0.08-0.03,0.11c0,0.03,0,0.05,0.01,0.07c0.01,0.02,0.02,0.04,0.03,0.05c0.01,0.02,0.04,0.04,0.09,0.08l-0.06,0.13
		l-0.71-0.32L34.39,7.23z"/>
	<path class="st0" d="M36.6,8.44c-0.16,0.03-0.29,0.04-0.4,0.02c-0.11-0.01-0.21-0.05-0.31-0.1c-0.18-0.1-0.29-0.23-0.32-0.38
		c-0.03-0.15,0.01-0.32,0.12-0.52l0.58-1.01l-0.23-0.13l0.07-0.12c0.08,0.03,0.15,0.04,0.19,0.04c0.05,0,0.09-0.02,0.14-0.05
		c0.04-0.03,0.09-0.07,0.14-0.13c0.05-0.06,0.1-0.13,0.17-0.23l0.43,0.25l-0.26,0.45l0.52,0.3l-0.13,0.23l-0.52-0.3l-0.47,0.81
		c-0.08,0.14-0.13,0.24-0.16,0.31c-0.02,0.07-0.03,0.13-0.02,0.18c0.01,0.05,0.04,0.08,0.09,0.11c0.03,0.02,0.07,0.03,0.1,0.04
		c0.03,0.01,0.06,0.01,0.1,0.02c0.04,0,0.08,0,0.13-0.01L36.6,8.44z"/>
	<path class="st0" d="M38.89,6.81L38.6,7.23l-0.47-0.32l0.29-0.42L38.89,6.81z M36.68,8.64c0.07,0.02,0.12,0.03,0.16,0.02
		c0.04-0.01,0.07-0.03,0.11-0.07c0.04-0.04,0.09-0.11,0.16-0.22l0.55-0.8c0.04-0.06,0.07-0.1,0.08-0.14
		c0.02-0.04,0.03-0.07,0.03-0.1c0-0.03-0.01-0.06-0.03-0.09c-0.02-0.03-0.04-0.06-0.08-0.09l0.08-0.12l0.48,0.31l0.22,0.15
		l-0.84,1.22c-0.04,0.06-0.08,0.11-0.1,0.15c-0.02,0.04-0.04,0.07-0.05,0.09C37.45,8.97,37.45,9,37.44,9.01c0,0.02-0.01,0.04,0,0.06
		c0,0.02,0.01,0.04,0.02,0.07c0.01,0.02,0.03,0.05,0.06,0.08l-0.08,0.11L36.6,8.76L36.68,8.64z"/>
	<path class="st0" d="M38.91,9.12c-0.19,0.23-0.31,0.42-0.35,0.57c-0.04,0.16-0.01,0.28,0.09,0.36c0.06,0.05,0.12,0.07,0.18,0.08
		c0.06,0,0.13-0.01,0.2-0.05c0.07-0.04,0.14-0.09,0.21-0.16c0.07-0.07,0.15-0.15,0.23-0.24c0.19-0.23,0.31-0.42,0.35-0.58
		c0.04-0.16,0.02-0.28-0.08-0.36c-0.07-0.06-0.15-0.09-0.23-0.08c-0.08,0.01-0.17,0.05-0.27,0.13C39.14,8.86,39.03,8.97,38.91,9.12
		 M38.49,10.19c-0.16-0.13-0.27-0.27-0.34-0.42c-0.07-0.15-0.08-0.31-0.05-0.49c0.04-0.17,0.13-0.36,0.29-0.54
		c0.12-0.14,0.24-0.25,0.37-0.32c0.13-0.07,0.25-0.11,0.38-0.12c0.13-0.01,0.25,0.01,0.38,0.06c0.12,0.05,0.24,0.12,0.36,0.22
		c0.26,0.22,0.4,0.45,0.41,0.69c0.02,0.25-0.08,0.5-0.3,0.76c-0.16,0.19-0.32,0.31-0.49,0.38c-0.17,0.07-0.34,0.09-0.51,0.05
		C38.82,10.42,38.65,10.33,38.49,10.19"/>
	<path class="st0" d="M41.12,12.76l-0.69-0.74l0.1-0.09c0.05,0.04,0.1,0.05,0.14,0.05c0.04,0,0.08-0.02,0.12-0.04
		c0.04-0.03,0.11-0.09,0.21-0.18l0.41-0.38c0.07-0.07,0.13-0.12,0.17-0.17c0.04-0.05,0.08-0.09,0.1-0.12
		c0.02-0.03,0.04-0.07,0.05-0.1c0.01-0.03,0.01-0.06,0.01-0.08c0-0.03-0.01-0.05-0.02-0.07c-0.01-0.02-0.03-0.05-0.06-0.08
		c-0.04-0.04-0.08-0.07-0.15-0.09c-0.06-0.02-0.13-0.02-0.2-0.01c-0.07,0.01-0.13,0.04-0.17,0.08l-0.59,0.54
		c-0.1,0.09-0.16,0.15-0.19,0.2c-0.03,0.04-0.05,0.08-0.06,0.12c0,0.04,0.01,0.09,0.04,0.15l-0.1,0.09l-0.68-0.74l0.1-0.09
		c0.06,0.04,0.11,0.05,0.15,0.05c0.04,0,0.08-0.02,0.12-0.04c0.04-0.03,0.11-0.09,0.21-0.17l0.63-0.58
		c0.08-0.07,0.13-0.12,0.16-0.16c0.03-0.04,0.06-0.07,0.07-0.1c0.01-0.03,0.02-0.06,0.01-0.09c0-0.03-0.02-0.08-0.06-0.14l0.1-0.1
		l0.4,0.41l0.18,0.19l-0.24,0.18l0.01,0.02c0.11,0.01,0.21,0.03,0.29,0.04c0.08,0.02,0.15,0.04,0.22,0.08
		c0.07,0.04,0.13,0.08,0.18,0.14c0.08,0.08,0.13,0.16,0.16,0.24c0.03,0.08,0.03,0.15,0.02,0.23c-0.01,0.08-0.05,0.15-0.1,0.23
		c-0.05,0.08-0.12,0.15-0.21,0.24l-0.56,0.52c-0.04,0.04-0.09,0.08-0.12,0.12c-0.04,0.04-0.07,0.07-0.08,0.1
		c-0.02,0.03-0.03,0.05-0.03,0.08c0,0.02,0,0.05,0,0.08c0.01,0.03,0.02,0.06,0.04,0.09L41.12,12.76z"/>
	<path class="st0" d="M42.78,13.38c-0.13-0.17-0.26-0.28-0.38-0.32c-0.12-0.04-0.24-0.02-0.36,0.07c-0.07,0.05-0.11,0.11-0.12,0.17
		c-0.01,0.06,0.01,0.13,0.06,0.2c0.04,0.05,0.09,0.09,0.15,0.12c0.06,0.03,0.12,0.04,0.19,0.03c0.07-0.01,0.12-0.03,0.18-0.06
		L42.78,13.38z M42.24,13.85l-0.01-0.03c-0.16-0.03-0.29-0.07-0.39-0.13c-0.1-0.06-0.19-0.14-0.26-0.24
		c-0.07-0.1-0.11-0.19-0.13-0.29c-0.02-0.1-0.01-0.19,0.03-0.27c0.04-0.08,0.1-0.15,0.18-0.21c0.17-0.12,0.36-0.13,0.57-0.03
		c0.21,0.1,0.45,0.3,0.71,0.62l0.16-0.11c0.11-0.07,0.18-0.14,0.22-0.21c0.04-0.07,0.06-0.12,0.06-0.18c0-0.05-0.02-0.11-0.06-0.16
		c-0.04-0.05-0.08-0.09-0.12-0.12c-0.05-0.02-0.1-0.03-0.18-0.03c-0.07,0.01-0.16,0.03-0.26,0.08l-0.23-0.32L42.84,12
		c0.12,0.07,0.22,0.13,0.29,0.18c0.07,0.05,0.14,0.1,0.21,0.16c0.06,0.06,0.12,0.11,0.16,0.16c0.04,0.05,0.09,0.1,0.12,0.15
		c0.1,0.14,0.16,0.26,0.18,0.37c0.02,0.11,0.01,0.21-0.05,0.31c-0.05,0.1-0.15,0.2-0.29,0.3l-0.66,0.47
		c-0.07,0.05-0.13,0.1-0.17,0.13c-0.04,0.03-0.06,0.06-0.08,0.08c-0.02,0.02-0.02,0.04-0.03,0.06c0,0.02,0,0.04,0,0.06
		c0,0.02,0.02,0.06,0.04,0.11l-0.11,0.08L42.01,14L42.24,13.85z"/>
	<path class="st0" d="M43.52,15.28c-0.11,0.07-0.19,0.12-0.23,0.15c-0.04,0.03-0.07,0.07-0.08,0.1c-0.01,0.04-0.01,0.09,0.01,0.16
		l-0.12,0.07l-0.51-0.88l0.12-0.07c0.03,0.03,0.06,0.05,0.08,0.07c0.02,0.01,0.05,0.02,0.07,0.02c0.02,0,0.05,0,0.07,0
		c0.03-0.01,0.06-0.02,0.11-0.04c0.04-0.02,0.1-0.06,0.18-0.1l1.41-0.82c0.1-0.06,0.18-0.11,0.23-0.13
		c0.05-0.03,0.09-0.06,0.12-0.08c0.03-0.02,0.05-0.05,0.06-0.07c0.01-0.02,0.02-0.05,0.02-0.08c0-0.03-0.01-0.07-0.03-0.13
		l0.12-0.07l0.32,0.48l0.13,0.23L43.52,15.28z"/>
	<path class="st0" d="M44.86,17.9c-0.15,0.09-0.24,0.18-0.29,0.28c-0.05,0.1-0.05,0.23,0,0.38c0.03,0.08,0.06,0.14,0.11,0.2
		c0.05,0.05,0.11,0.09,0.18,0.11c0.07,0.02,0.15,0.01,0.24-0.02c0.08-0.03,0.15-0.07,0.2-0.12c0.05-0.05,0.09-0.12,0.12-0.2
		c0.03-0.09,0.06-0.2,0.08-0.34c0.02-0.12,0.04-0.23,0.06-0.33c0.03-0.1,0.06-0.19,0.11-0.27c0.05-0.08,0.1-0.15,0.17-0.21
		c0.07-0.06,0.15-0.11,0.25-0.14c0.16-0.06,0.31-0.06,0.45-0.02c0.14,0.04,0.27,0.13,0.38,0.26c0.11,0.13,0.2,0.3,0.27,0.5
		c0.04,0.12,0.07,0.23,0.1,0.34c0.02,0.11,0.04,0.24,0.06,0.39l-0.57,0.2l-0.09-0.27c0.1-0.06,0.17-0.12,0.21-0.18
		c0.05-0.06,0.08-0.12,0.08-0.19c0.01-0.07,0-0.15-0.03-0.23c-0.03-0.07-0.06-0.14-0.11-0.19c-0.05-0.05-0.1-0.08-0.17-0.1
		c-0.06-0.02-0.13-0.01-0.21,0.01c-0.08,0.03-0.14,0.06-0.18,0.11c-0.05,0.05-0.08,0.12-0.11,0.21c-0.03,0.09-0.06,0.21-0.08,0.37
		c-0.03,0.19-0.07,0.35-0.12,0.47c-0.05,0.12-0.11,0.22-0.19,0.3s-0.18,0.14-0.31,0.18c-0.16,0.06-0.31,0.07-0.46,0.03
		c-0.15-0.03-0.27-0.11-0.39-0.23c-0.11-0.12-0.2-0.28-0.27-0.46c-0.05-0.13-0.09-0.28-0.12-0.43c-0.03-0.15-0.06-0.29-0.07-0.43
		l0.61-0.21L44.86,17.9z"/>
	<path class="st0" d="M45.67,21.41l-0.15,0.2c-0.16-0.1-0.28-0.21-0.37-0.32c-0.08-0.11-0.14-0.24-0.17-0.39
		c-0.07-0.29-0.03-0.54,0.11-0.73c0.14-0.19,0.37-0.33,0.7-0.4c0.22-0.05,0.42-0.05,0.61,0c0.18,0.05,0.33,0.14,0.45,0.28
		c0.12,0.14,0.2,0.31,0.25,0.52c0.02,0.11,0.04,0.22,0.05,0.33c0.01,0.11,0.01,0.22,0,0.31l-0.49,0.11l-0.09-0.4
		c0.12-0.05,0.21-0.1,0.26-0.15c0.05-0.05,0.07-0.12,0.05-0.19c-0.01-0.05-0.03-0.1-0.07-0.14c-0.04-0.04-0.09-0.07-0.16-0.09
		c-0.07-0.02-0.16-0.03-0.27-0.03c-0.11,0-0.24,0.02-0.4,0.06c-0.16,0.04-0.29,0.08-0.39,0.13c-0.1,0.05-0.18,0.12-0.22,0.2
		c-0.04,0.08-0.05,0.17-0.03,0.28c0.02,0.08,0.05,0.15,0.1,0.21C45.48,21.27,45.56,21.34,45.67,21.41"/>
	<path class="st0" d="M47.1,22.54c0.12,0.11,0.22,0.22,0.27,0.31c0.06,0.09,0.09,0.19,0.1,0.3c0.02,0.15,0,0.27-0.05,0.36
		c-0.05,0.09-0.12,0.16-0.22,0.21c-0.1,0.05-0.24,0.08-0.4,0.1l-0.76,0.08c-0.06,0.01-0.12,0.01-0.17,0.02
		c-0.05,0.01-0.09,0.02-0.13,0.03c-0.03,0.01-0.06,0.03-0.07,0.04c-0.02,0.02-0.03,0.04-0.04,0.07c-0.01,0.03-0.02,0.06-0.03,0.1
		l-0.14,0.01l-0.1-1.01l0.14-0.01c0.02,0.06,0.05,0.11,0.08,0.13c0.03,0.02,0.07,0.03,0.12,0.04c0.05,0,0.14,0,0.28-0.01l0.54-0.06
		c0.14-0.01,0.25-0.03,0.32-0.05c0.08-0.02,0.13-0.04,0.17-0.06c0.04-0.03,0.07-0.06,0.09-0.09c0.02-0.04,0.02-0.08,0.02-0.14
		c-0.01-0.05-0.03-0.11-0.07-0.16c-0.04-0.05-0.09-0.1-0.15-0.13c-0.06-0.03-0.12-0.05-0.19-0.04l-0.8,0.08
		c-0.08,0.01-0.14,0.01-0.18,0.02c-0.04,0.01-0.07,0.01-0.1,0.02c-0.02,0.01-0.04,0.01-0.06,0.02c-0.02,0.01-0.03,0.02-0.05,0.04
		c-0.01,0.01-0.03,0.03-0.04,0.06c-0.01,0.02-0.02,0.06-0.02,0.1l-0.14,0.01l-0.1-1.02l0.14-0.01c0.01,0.04,0.03,0.07,0.04,0.09
		c0.02,0.02,0.03,0.04,0.05,0.05c0.02,0.01,0.04,0.02,0.07,0.03c0.03,0.01,0.07,0.01,0.11,0.01c0.05,0,0.12-0.01,0.2-0.02l1.62-0.16
		c0.12-0.01,0.21-0.02,0.26-0.03c0.06-0.01,0.1-0.02,0.14-0.03c0.04-0.01,0.07-0.02,0.09-0.04s0.04-0.04,0.05-0.07
		c0.01-0.03,0.02-0.07,0.02-0.13l0.14-0.01l0.09,0.57l0.03,0.26L47.1,22.54L47.1,22.54z"/>
	<path class="st0" d="M46.51,25.14c-0.3-0.01-0.52,0.02-0.66,0.08c-0.15,0.06-0.22,0.16-0.23,0.29c0,0.07,0.02,0.14,0.05,0.19
		c0.04,0.05,0.09,0.09,0.16,0.12c0.07,0.03,0.16,0.06,0.25,0.07s0.21,0.02,0.33,0.03c0.3,0.01,0.52-0.02,0.67-0.08
		c0.15-0.06,0.23-0.16,0.23-0.29c0-0.09-0.03-0.17-0.08-0.23c-0.06-0.06-0.15-0.1-0.27-0.13C46.85,25.17,46.7,25.15,46.51,25.14
		 M45.41,25.48c0.01-0.2,0.05-0.38,0.12-0.53c0.08-0.15,0.19-0.26,0.35-0.34c0.16-0.08,0.36-0.12,0.6-0.11
		c0.19,0,0.35,0.03,0.48,0.09c0.14,0.06,0.25,0.13,0.33,0.22c0.09,0.09,0.15,0.21,0.19,0.33c0.04,0.13,0.06,0.27,0.05,0.42
		c-0.01,0.34-0.1,0.59-0.29,0.75c-0.18,0.17-0.44,0.25-0.79,0.24c-0.24-0.01-0.44-0.05-0.6-0.14c-0.16-0.09-0.28-0.21-0.35-0.37
		C45.43,25.89,45.4,25.7,45.41,25.48"/>
	<path class="st0" d="M46.34,27.7c-0.29-0.04-0.51-0.04-0.67,0c-0.16,0.04-0.24,0.13-0.26,0.26c-0.01,0.07,0,0.14,0.03,0.19
		c0.03,0.05,0.08,0.1,0.14,0.14c0.07,0.04,0.15,0.07,0.24,0.1s0.21,0.05,0.33,0.07c0.3,0.05,0.52,0.05,0.68,0
		c0.16-0.04,0.24-0.13,0.26-0.26c0.01-0.09,0-0.17-0.05-0.24c-0.05-0.07-0.13-0.12-0.25-0.16C46.67,27.76,46.52,27.73,46.34,27.7
		 M45.2,27.9c0.03-0.2,0.09-0.37,0.19-0.51c0.09-0.14,0.22-0.23,0.39-0.29c0.17-0.06,0.37-0.07,0.61-0.03
		c0.18,0.03,0.34,0.08,0.47,0.15c0.13,0.07,0.23,0.16,0.3,0.26c0.07,0.1,0.12,0.22,0.15,0.35c0.02,0.13,0.02,0.27,0,0.42
		c-0.05,0.33-0.18,0.57-0.38,0.71c-0.2,0.14-0.47,0.19-0.81,0.14c-0.24-0.04-0.43-0.11-0.58-0.22c-0.15-0.11-0.25-0.25-0.31-0.41
		C45.17,28.3,45.16,28.11,45.2,27.9"/>
	<path class="st0" d="M45.36,30.22c-0.13-0.03-0.22-0.05-0.27-0.06c-0.05,0-0.09,0-0.13,0.02c-0.04,0.02-0.07,0.06-0.11,0.12
		l-0.13-0.03l0.25-0.99l0.13,0.03c0,0.04,0,0.08,0.01,0.1c0.01,0.03,0.02,0.05,0.03,0.06c0.01,0.02,0.03,0.03,0.06,0.05
		c0.02,0.02,0.06,0.03,0.1,0.05c0.05,0.01,0.11,0.03,0.2,0.05l1.58,0.4c0.12,0.03,0.2,0.05,0.26,0.06c0.06,0.01,0.1,0.02,0.14,0.02
		c0.04,0,0.07,0,0.1-0.01c0.03-0.01,0.05-0.02,0.07-0.05c0.02-0.02,0.04-0.06,0.07-0.11l0.13,0.03l-0.11,0.57l-0.06,0.25
		L45.36,30.22z"/>
	<path class="st3" d="M26.13,44.35c-5.91,0-11.41-2.65-15.11-7.26l0.05-0.04c3.68,4.6,9.17,7.24,15.06,7.24
		c5.89,0,11.38-2.64,15.06-7.24l0.05,0.04C37.54,41.7,32.03,44.35,26.13,44.35"/>
	<path class="st0" d="M20.36,46.2c0.02,0.01,0.08,0.03,0.18,0.05c0.15,0.04,0.28,0.05,0.39,0.03c0.08-0.01,0.16-0.04,0.23-0.09
		c0.11-0.07,0.21-0.17,0.29-0.31c0.09-0.15,0.16-0.34,0.22-0.57c0.06-0.26,0.08-0.48,0.06-0.66c-0.03-0.19-0.09-0.34-0.2-0.45
		c-0.1-0.11-0.24-0.19-0.42-0.23c-0.08-0.02-0.14-0.03-0.18-0.04L20.36,46.2z M21.2,43.73c0.23,0.06,0.41,0.12,0.55,0.19
		c0.14,0.07,0.26,0.16,0.36,0.27c0.1,0.1,0.17,0.22,0.22,0.34c0.05,0.12,0.07,0.26,0.07,0.4c0,0.15-0.02,0.31-0.06,0.48
		c-0.05,0.21-0.12,0.39-0.22,0.55c-0.09,0.15-0.2,0.28-0.33,0.37c-0.11,0.08-0.24,0.15-0.39,0.18c-0.14,0.04-0.3,0.05-0.48,0.04
		c-0.15-0.01-0.33-0.04-0.55-0.1l-0.92-0.23l0.03-0.13c0.05,0,0.1-0.01,0.13-0.01c0.03-0.01,0.06-0.02,0.08-0.05
		c0.02-0.02,0.04-0.06,0.05-0.1c0.02-0.04,0.03-0.09,0.05-0.16l0.44-1.74c0.02-0.06,0.03-0.12,0.03-0.16c0.01-0.04,0.01-0.08,0-0.11
		c-0.01-0.03-0.02-0.06-0.05-0.08c-0.02-0.02-0.06-0.05-0.11-0.08l0.03-0.13L21.2,43.73z"/>
	<path class="st0" d="M22.87,44.91L23.67,45l-0.12,1.15c-0.01,0.13-0.02,0.24-0.02,0.31c0,0.08,0.01,0.14,0.03,0.18
		c0.02,0.05,0.04,0.08,0.08,0.1c0.03,0.02,0.07,0.04,0.13,0.04c0.05,0.01,0.11-0.01,0.17-0.03c0.06-0.03,0.11-0.07,0.16-0.12
		c0.05-0.05,0.07-0.11,0.08-0.18l0.08-0.8c0.01-0.1,0.02-0.18,0.02-0.23c0-0.05,0-0.09-0.01-0.12c-0.01-0.03-0.02-0.05-0.05-0.08
		c-0.02-0.02-0.06-0.04-0.12-0.07l0.01-0.14l0.81,0.08l-0.15,1.45c-0.01,0.11-0.02,0.18-0.02,0.23c0,0.05,0,0.09,0.01,0.12
		c0.01,0.03,0.03,0.06,0.05,0.08c0.03,0.02,0.07,0.04,0.13,0.06l-0.01,0.14l-0.57-0.04l-0.25-0.03l0.05-0.3l-0.02-0.01
		c-0.14,0.11-0.26,0.18-0.37,0.21c-0.11,0.04-0.21,0.05-0.31,0.04c-0.15-0.02-0.26-0.06-0.34-0.12c-0.08-0.06-0.14-0.15-0.16-0.26
		c-0.03-0.11-0.03-0.25-0.02-0.42l0.08-0.76c0.01-0.08,0.01-0.14,0.02-0.18c0-0.04,0-0.07,0-0.1c0-0.02-0.01-0.04-0.01-0.06
		c-0.01-0.02-0.01-0.04-0.03-0.05c-0.01-0.02-0.03-0.03-0.05-0.05c-0.02-0.01-0.05-0.03-0.09-0.04L22.87,44.91z"/>
	<path class="st0" d="M26.29,45.42c0.12-0.12,0.24-0.2,0.33-0.25c0.1-0.05,0.2-0.07,0.3-0.08c0.15,0,0.27,0.02,0.36,0.08
		c0.08,0.05,0.15,0.13,0.19,0.24c0.04,0.1,0.06,0.24,0.07,0.41l0.02,0.76c0,0.06,0,0.12,0.01,0.17c0,0.05,0.01,0.1,0.02,0.13
		c0.01,0.03,0.02,0.06,0.04,0.08c0.02,0.02,0.04,0.04,0.06,0.05c0.03,0.01,0.06,0.02,0.1,0.03l0,0.14l-1.01,0.02l0-0.14
		c0.07-0.02,0.11-0.04,0.13-0.07c0.02-0.03,0.04-0.07,0.05-0.12c0.01-0.05,0.01-0.14,0.01-0.28l-0.01-0.54
		c0-0.14-0.01-0.25-0.02-0.32c-0.01-0.08-0.03-0.14-0.05-0.18c-0.02-0.04-0.05-0.07-0.09-0.09c-0.03-0.02-0.08-0.03-0.14-0.03
		c-0.05,0-0.11,0.02-0.16,0.05c-0.06,0.03-0.1,0.08-0.14,0.14c-0.04,0.06-0.05,0.12-0.05,0.18l0.02,0.81c0,0.08,0,0.14,0.01,0.18
		c0,0.04,0.01,0.07,0.01,0.1c0,0.02,0.01,0.04,0.02,0.06c0.01,0.02,0.02,0.03,0.03,0.05c0.01,0.01,0.03,0.03,0.05,0.04
		c0.02,0.01,0.06,0.02,0.09,0.03l0,0.14l-1.02,0.02l0-0.14c0.04-0.01,0.07-0.02,0.1-0.04c0.02-0.01,0.04-0.03,0.05-0.05
		c0.01-0.02,0.02-0.04,0.03-0.07c0.01-0.03,0.01-0.07,0.02-0.11c0-0.05,0-0.12,0-0.21L25.67,45c0-0.12-0.01-0.21-0.01-0.26
		c0-0.06-0.01-0.1-0.02-0.14c-0.01-0.04-0.02-0.07-0.03-0.09c-0.01-0.02-0.03-0.04-0.06-0.05c-0.03-0.01-0.07-0.02-0.13-0.03l0-0.14
		L26,44.23l0.26-0.01L26.29,45.42L26.29,45.42z"/>
	<path class="st0" d="M28.88,45.97c0.04,0.29,0.11,0.5,0.2,0.64c0.09,0.14,0.2,0.19,0.33,0.17c0.07-0.01,0.13-0.04,0.17-0.08
		c0.04-0.04,0.07-0.1,0.09-0.18c0.02-0.07,0.03-0.16,0.03-0.26c0-0.1-0.01-0.21-0.03-0.33c-0.04-0.3-0.11-0.51-0.2-0.65
		c-0.09-0.14-0.19-0.2-0.32-0.18c-0.09,0.01-0.16,0.05-0.21,0.12s-0.08,0.16-0.08,0.28C28.85,45.63,28.86,45.78,28.88,45.97
		 M29.41,47c-0.2,0.03-0.38,0.02-0.54-0.03c-0.16-0.05-0.29-0.15-0.39-0.29c-0.11-0.14-0.18-0.34-0.21-0.58
		c-0.03-0.18-0.03-0.35,0.01-0.49c0.03-0.14,0.08-0.26,0.16-0.37c0.08-0.1,0.18-0.18,0.3-0.24c0.12-0.06,0.25-0.1,0.4-0.12
		c0.33-0.05,0.6,0,0.79,0.15c0.2,0.15,0.32,0.39,0.37,0.73c0.04,0.24,0.02,0.45-0.04,0.62c-0.06,0.17-0.16,0.31-0.31,0.41
		C29.8,46.9,29.62,46.97,29.41,47"/>
	<path class="st0" d="M32.18,45.01l0.73,0.62c0.11,0.09,0.19,0.15,0.24,0.19c0.05,0.03,0.09,0.05,0.12,0.06
		c0.03,0.01,0.07,0.02,0.11,0.01l0.04,0.13l-0.98,0.28l-0.04-0.13c0.06-0.03,0.08-0.07,0.06-0.12c-0.01-0.03-0.03-0.07-0.07-0.11
		c-0.04-0.04-0.1-0.1-0.2-0.18l-0.22-0.19c-0.05-0.04-0.09-0.07-0.12-0.09c-0.03-0.02-0.05-0.03-0.08-0.04
		c-0.02-0.01-0.05,0-0.09,0.01l-0.1,0.03l0.12,0.41c0.04,0.13,0.06,0.21,0.09,0.26c0.02,0.05,0.05,0.08,0.08,0.1
		c0.03,0.02,0.09,0.03,0.16,0.03l0.04,0.13l-0.98,0.28l-0.04-0.13c0.04-0.02,0.07-0.04,0.09-0.06c0.02-0.02,0.03-0.04,0.04-0.06
		c0.01-0.02,0.01-0.04,0.01-0.07c0-0.03,0-0.07-0.01-0.11c-0.01-0.05-0.03-0.11-0.05-0.2l-0.44-1.57c-0.03-0.11-0.06-0.2-0.07-0.25
		c-0.02-0.05-0.03-0.1-0.05-0.13c-0.02-0.03-0.04-0.06-0.05-0.08c-0.02-0.02-0.04-0.03-0.07-0.04c-0.03-0.01-0.07-0.01-0.13,0
		l-0.04-0.13l0.55-0.19l0.25-0.07l0.48,1.69l0.07-0.02c0.05-0.01,0.08-0.03,0.11-0.05c0.02-0.02,0.05-0.04,0.07-0.07
		c0.02-0.03,0.06-0.08,0.1-0.15c0.05-0.07,0.08-0.13,0.1-0.18c0.02-0.05,0.03-0.09,0.03-0.13c0-0.03,0-0.07-0.01-0.1
		c-0.03-0.09-0.1-0.13-0.22-0.11l-0.04-0.13l1-0.28l0.04,0.13c-0.05,0.02-0.1,0.06-0.15,0.12c-0.05,0.06-0.13,0.17-0.23,0.34
		L32.18,45.01z"/>
	<path class="st0" d="M26.15,21.77c0.01,0.32,0.02,0.64,0.02,0.96l0.01,0.96c0.01,0.64,0.01,1.28,0.01,1.92c0,0.64,0,1.28-0.01,1.92
		l-0.01,0.96c-0.01,0.32-0.01,0.64-0.02,0.96h-0.03c-0.01-0.32-0.02-0.64-0.02-0.96l-0.01-0.96c-0.01-0.64-0.01-1.28-0.01-1.92
		c0-0.64,0-1.28,0.01-1.92l0.01-0.96c0.01-0.32,0.01-0.64,0.02-0.96H26.15z"/>
	<path class="st3" d="M23.58,39.35c0.04,0,0.07,0,0.09-0.01c0.02,0,0.04-0.01,0.05-0.02c0.01-0.01,0.02-0.02,0.03-0.04
		c0.01-0.02,0.02-0.04,0.03-0.08h0.1l-0.02,0.33h-0.92v-0.05c0.03-0.08,0.08-0.16,0.13-0.24c0.05-0.08,0.13-0.18,0.23-0.29
		c0.09-0.1,0.15-0.17,0.19-0.22c0.04-0.05,0.07-0.1,0.09-0.14c0.02-0.04,0.04-0.08,0.04-0.11c0.01-0.03,0.01-0.07,0.01-0.11
		c0-0.06-0.01-0.11-0.03-0.15c-0.02-0.04-0.05-0.08-0.08-0.1c-0.04-0.02-0.08-0.04-0.14-0.04c-0.14,0-0.23,0.08-0.28,0.23h-0.14
		V38.1c0.09-0.04,0.18-0.07,0.25-0.09c0.08-0.02,0.15-0.03,0.21-0.03c0.14,0,0.24,0.03,0.32,0.09c0.07,0.06,0.11,0.15,0.11,0.27
		c0,0.04,0,0.08-0.01,0.11c-0.01,0.03-0.02,0.07-0.04,0.1s-0.04,0.07-0.07,0.11c-0.03,0.04-0.06,0.07-0.09,0.11
		c-0.03,0.04-0.09,0.1-0.18,0.19c-0.14,0.15-0.25,0.28-0.31,0.39H23.58z"/>
	<path class="st3" d="M24.7,38.75c0,0.24,0.02,0.42,0.07,0.54c0.05,0.11,0.11,0.17,0.21,0.17c0.09,0,0.16-0.05,0.2-0.16
		c0.04-0.11,0.07-0.27,0.07-0.5c0-0.17-0.01-0.31-0.03-0.42c-0.02-0.11-0.05-0.18-0.09-0.23c-0.04-0.05-0.09-0.07-0.15-0.07
		c-0.05,0-0.09,0.02-0.13,0.05c-0.03,0.03-0.06,0.07-0.08,0.13c-0.02,0.06-0.04,0.13-0.05,0.21C24.7,38.55,24.7,38.64,24.7,38.75
		 M24.96,39.55c-0.16,0-0.28-0.06-0.36-0.19c-0.08-0.13-0.12-0.32-0.12-0.58c0-0.14,0.01-0.26,0.04-0.36
		c0.02-0.1,0.06-0.18,0.1-0.25c0.04-0.07,0.1-0.11,0.16-0.15c0.06-0.03,0.13-0.05,0.2-0.05c0.16,0,0.29,0.06,0.37,0.19
		c0.08,0.13,0.12,0.32,0.12,0.57c0,0.26-0.04,0.47-0.13,0.6C25.25,39.48,25.13,39.55,24.96,39.55"/>
	<path class="st3" d="M26.67,39.24c0,0.04,0,0.08,0.01,0.1c0.01,0.02,0.01,0.04,0.03,0.05s0.03,0.02,0.05,0.03
		c0.02,0.01,0.05,0.01,0.09,0.02c0.03,0,0.08,0.01,0.14,0.01v0.08h-0.83v-0.08c0.08,0,0.14-0.01,0.18-0.02
		c0.04-0.01,0.06-0.02,0.08-0.03c0.02-0.01,0.03-0.03,0.04-0.05c0.01-0.02,0.01-0.06,0.01-0.11v-0.91c0-0.03-0.01-0.05-0.02-0.07
		c-0.01-0.01-0.03-0.02-0.05-0.02c-0.02,0-0.06,0.01-0.1,0.04c-0.04,0.02-0.1,0.06-0.16,0.1l-0.05-0.09l0.53-0.31h0.06
		c0,0.07-0.01,0.17-0.01,0.3V39.24z"/>
	<path class="st3" d="M27.79,38.37c0,0.04,0.01,0.09,0.02,0.12c0.01,0.04,0.03,0.07,0.05,0.1c0.02,0.03,0.05,0.05,0.09,0.07
		c0.04,0.02,0.08,0.03,0.14,0.03c0.06,0,0.11-0.01,0.16-0.04c0.04-0.02,0.07-0.06,0.09-0.11c0.02-0.05,0.03-0.1,0.03-0.16
		c0-0.07-0.01-0.12-0.04-0.17c-0.02-0.05-0.06-0.08-0.1-0.1c-0.04-0.02-0.09-0.03-0.15-0.03c-0.09,0-0.17,0.03-0.22,0.08
		C27.81,38.21,27.79,38.28,27.79,38.37 M27.77,39.11c0,0.05,0.01,0.09,0.02,0.14c0.01,0.04,0.03,0.08,0.05,0.11
		c0.02,0.03,0.06,0.06,0.09,0.07c0.04,0.02,0.08,0.03,0.14,0.03c0.06,0,0.11-0.01,0.16-0.04c0.04-0.02,0.08-0.06,0.1-0.11
		c0.02-0.05,0.03-0.11,0.03-0.17c0-0.07-0.01-0.13-0.04-0.19c-0.02-0.05-0.06-0.09-0.1-0.12c-0.05-0.03-0.1-0.04-0.16-0.04
		c-0.06,0-0.1,0.01-0.14,0.03c-0.04,0.02-0.07,0.04-0.09,0.07c-0.02,0.03-0.04,0.06-0.05,0.1C27.78,39.02,27.77,39.06,27.77,39.11
		 M28.32,38.72l0,0.01c0.08,0.03,0.15,0.08,0.19,0.14c0.04,0.06,0.07,0.14,0.07,0.23c0,0.09-0.02,0.16-0.06,0.23
		c-0.04,0.07-0.1,0.12-0.18,0.15c-0.08,0.04-0.17,0.05-0.28,0.05c-0.1,0-0.19-0.02-0.26-0.05c-0.07-0.03-0.13-0.08-0.17-0.15
		c-0.04-0.06-0.06-0.14-0.06-0.23c0-0.07,0.01-0.12,0.03-0.17c0.02-0.05,0.05-0.09,0.09-0.12c0.04-0.03,0.08-0.06,0.14-0.08l0-0.01
		c-0.16-0.07-0.24-0.19-0.24-0.36c0-0.08,0.02-0.15,0.06-0.21c0.04-0.06,0.1-0.11,0.18-0.14c0.08-0.03,0.16-0.05,0.26-0.05
		c0.11,0,0.2,0.02,0.27,0.05c0.07,0.03,0.13,0.07,0.17,0.13c0.04,0.06,0.06,0.13,0.06,0.21c0,0.08-0.02,0.15-0.06,0.21
		C28.47,38.64,28.41,38.69,28.32,38.72"/>
	<path class="st2" d="M58.46,27.94v-0.55c0.23-0.04,0.42-0.09,0.56-0.15c0.14-0.06,0.24-0.15,0.3-0.27
		c0.07-0.12,0.11-0.27,0.13-0.45c0.02-0.18,0.02-0.4,0.02-0.67v-8.33h-0.68c-0.33,0-0.59,0.04-0.77,0.12
		c-0.18,0.08-0.33,0.2-0.46,0.37c-0.13,0.17-0.24,0.39-0.34,0.67c-0.09,0.28-0.17,0.55-0.23,0.8h-1.14v-2.93h9.83v2.93h-1.14
		c-0.11-0.38-0.19-0.66-0.25-0.84c-0.06-0.18-0.13-0.33-0.2-0.45c-0.08-0.13-0.15-0.23-0.24-0.31c-0.08-0.08-0.17-0.15-0.27-0.2
		c-0.09-0.05-0.21-0.09-0.36-0.11c-0.14-0.02-0.33-0.04-0.56-0.04h-0.6v8.33c0,0.3,0.01,0.52,0.02,0.67
		c0.02,0.15,0.05,0.28,0.09,0.37c0.04,0.09,0.1,0.17,0.16,0.23c0.06,0.06,0.15,0.11,0.27,0.16c0.11,0.05,0.27,0.08,0.46,0.11v0.55
		H58.46z"/>
	<path class="st2" d="M76.87,25.85c0,0.43,0.02,0.72,0.05,0.88c0.04,0.16,0.11,0.29,0.22,0.4c0.11,0.11,0.31,0.2,0.61,0.27v0.55
		H73.4v-0.55c0.32-0.08,0.53-0.17,0.63-0.25c0.09-0.08,0.16-0.2,0.2-0.35c0.04-0.15,0.06-0.47,0.06-0.94V22.5h-3.77v3.35
		c0,0.2,0.01,0.38,0.02,0.54c0.01,0.17,0.03,0.3,0.07,0.41c0.03,0.11,0.08,0.2,0.15,0.27c0.06,0.07,0.15,0.13,0.26,0.19
		c0.11,0.05,0.25,0.1,0.41,0.14v0.55h-4.38v-0.55c0.21-0.06,0.37-0.11,0.49-0.18c0.12-0.06,0.21-0.15,0.27-0.27
		c0.06-0.11,0.1-0.26,0.11-0.43c0.02-0.18,0.02-0.4,0.02-0.66v-7.2c0-0.26-0.01-0.48-0.02-0.66c-0.01-0.18-0.05-0.32-0.11-0.43
		c-0.06-0.11-0.15-0.2-0.27-0.27c-0.12-0.07-0.29-0.13-0.5-0.19v-0.55h4.38v0.55c-0.3,0.08-0.5,0.18-0.61,0.28
		c-0.11,0.1-0.19,0.23-0.23,0.4c-0.04,0.16-0.07,0.46-0.07,0.89v2.79h3.77v-2.79c0-0.42-0.02-0.72-0.05-0.88
		c-0.04-0.16-0.11-0.3-0.22-0.4c-0.11-0.1-0.31-0.2-0.61-0.28v-0.55h4.36v0.55c-0.25,0.07-0.42,0.14-0.53,0.21
		c-0.11,0.08-0.19,0.17-0.24,0.29c-0.05,0.12-0.08,0.25-0.09,0.39c-0.01,0.15-0.02,0.37-0.02,0.67V25.85z"/>
	<path class="st2" d="M87.65,16.54v2.66h-1.14c-0.18-0.53-0.34-0.89-0.47-1.07c-0.13-0.19-0.28-0.33-0.46-0.44
		c-0.18-0.11-0.48-0.16-0.91-0.16h-1.82v4.01h1.1c0.24,0,0.44-0.03,0.58-0.1c0.14-0.07,0.25-0.18,0.35-0.35
		c0.09-0.16,0.18-0.41,0.26-0.75h0.94v3.39h-0.94c-0.08-0.32-0.16-0.57-0.26-0.74c-0.09-0.17-0.21-0.29-0.34-0.36
		c-0.13-0.07-0.33-0.11-0.59-0.11h-1.1v4.46h1.81c0.19,0,0.36-0.01,0.49-0.04c0.13-0.02,0.25-0.07,0.36-0.13
		c0.11-0.06,0.21-0.14,0.3-0.25c0.1-0.11,0.18-0.22,0.26-0.34c0.08-0.12,0.15-0.28,0.24-0.48c0.08-0.2,0.18-0.48,0.28-0.83h1.14
		l-0.16,3.05h-8.21v-0.55c0.21-0.06,0.37-0.12,0.49-0.18c0.12-0.06,0.21-0.15,0.27-0.27c0.06-0.11,0.1-0.26,0.11-0.43
		c0.02-0.18,0.03-0.4,0.03-0.66v-7.2c0-0.26-0.01-0.48-0.02-0.66c-0.01-0.18-0.05-0.32-0.11-0.43c-0.06-0.11-0.15-0.2-0.27-0.27
		c-0.12-0.07-0.29-0.13-0.5-0.19v-0.55H87.65z"/>
	<path class="st2" d="M95.7,23.43h3.01l-1.34-4.7L95.7,23.43z M98.95,24.41h-3.57l-0.28,0.79c-0.08,0.22-0.14,0.44-0.19,0.65
		c-0.05,0.21-0.07,0.43-0.07,0.66c0,0.55,0.29,0.84,0.87,0.88v0.55h-3.57v-0.55c0.21-0.02,0.39-0.09,0.54-0.22
		c0.16-0.12,0.3-0.29,0.43-0.5c0.13-0.21,0.26-0.51,0.41-0.91l3.48-9.28h2.23l2.76,9.35c0.12,0.42,0.23,0.71,0.31,0.89
		c0.08,0.17,0.19,0.32,0.33,0.43c0.13,0.11,0.32,0.19,0.56,0.24v0.55h-4.61v-0.55c0.29-0.03,0.5-0.11,0.64-0.24
		c0.14-0.13,0.21-0.31,0.21-0.54c0-0.17-0.02-0.36-0.06-0.58c-0.04-0.21-0.1-0.48-0.19-0.8L98.95,24.41z"/>
	<path class="st2" d="M117.03,17.09c-0.3,0.08-0.5,0.17-0.6,0.27c-0.11,0.1-0.18,0.23-0.22,0.39c-0.04,0.16-0.06,0.46-0.06,0.87
		v7.22c0,0.34,0.02,0.61,0.05,0.81c0.03,0.2,0.1,0.35,0.2,0.45c0.1,0.1,0.31,0.2,0.63,0.28v0.55h-4.28v-0.55
		c0.25-0.07,0.41-0.13,0.51-0.18c0.09-0.05,0.17-0.12,0.22-0.2c0.05-0.08,0.09-0.2,0.12-0.37c0.02-0.16,0.04-0.44,0.04-0.81v-4.09
		c0-0.45,0.01-0.98,0.02-1.6c0.02-0.61,0.03-1.05,0.05-1.3h-0.18c-0.07,0.22-0.14,0.44-0.21,0.66c-0.07,0.21-0.22,0.6-0.42,1.15
		l-2.24,6.03h-1.47l-2.36-6.77c-0.14-0.38-0.26-0.77-0.37-1.14h-0.15c0.06,0.92,0.08,2,0.08,3.26v3.84c0,0.41,0.02,0.7,0.06,0.86
		c0.04,0.16,0.12,0.3,0.23,0.4c0.12,0.11,0.32,0.2,0.61,0.27v0.55h-3.16v-0.55c0.21-0.06,0.37-0.12,0.49-0.18
		c0.12-0.07,0.21-0.16,0.27-0.27c0.06-0.11,0.1-0.25,0.11-0.43c0.01-0.17,0.02-0.39,0.02-0.66v-7.22c0-0.42-0.02-0.71-0.05-0.87
		c-0.04-0.16-0.11-0.28-0.21-0.38c-0.11-0.1-0.31-0.19-0.63-0.28v-0.55h4.15l2.31,6.86l2.51-6.86h3.92V17.09z"/>
	<path class="st2" d="M126.92,16.54v2.66h-1.14c-0.18-0.53-0.34-0.89-0.47-1.07c-0.13-0.19-0.28-0.33-0.46-0.44
		c-0.18-0.11-0.48-0.16-0.91-0.16h-1.82v4.01h1.1c0.24,0,0.44-0.03,0.58-0.1c0.14-0.07,0.25-0.18,0.35-0.35
		c0.09-0.16,0.18-0.41,0.26-0.75h0.94v3.39h-0.94c-0.08-0.32-0.16-0.57-0.26-0.74c-0.09-0.17-0.21-0.29-0.34-0.36
		c-0.13-0.07-0.33-0.11-0.59-0.11h-1.1v4.46h1.81c0.19,0,0.36-0.01,0.49-0.04s0.25-0.07,0.36-0.13c0.11-0.06,0.21-0.14,0.3-0.25
		c0.1-0.11,0.18-0.22,0.26-0.34c0.08-0.12,0.15-0.28,0.24-0.48c0.08-0.2,0.18-0.48,0.28-0.83h1.14l-0.16,3.05h-8.21v-0.55
		c0.21-0.06,0.37-0.12,0.49-0.18s0.21-0.15,0.27-0.27c0.06-0.11,0.1-0.26,0.11-0.43c0.02-0.18,0.02-0.4,0.02-0.66v-7.2
		c0-0.26-0.01-0.48-0.02-0.66c-0.01-0.18-0.05-0.32-0.11-0.43c-0.06-0.11-0.15-0.2-0.27-0.27c-0.12-0.07-0.29-0.13-0.5-0.19v-0.55
		H126.92z"/>
	<path class="st2" d="M132,17.54v4.64h0.83c0.45,0,0.81-0.06,1.1-0.18c0.29-0.12,0.52-0.29,0.69-0.5c0.17-0.21,0.29-0.47,0.35-0.76
		c0.06-0.29,0.1-0.61,0.1-0.95c0-0.76-0.18-1.33-0.53-1.7c-0.36-0.38-0.89-0.57-1.59-0.57C132.46,17.52,132.15,17.52,132,17.54
		 M132.9,27.94h-4.38v-0.55c0.21-0.06,0.37-0.12,0.49-0.18c0.12-0.06,0.21-0.15,0.27-0.27c0.06-0.11,0.1-0.26,0.11-0.43
		c0.02-0.18,0.02-0.4,0.02-0.66v-7.2c0-0.26-0.01-0.48-0.02-0.66c-0.01-0.18-0.05-0.32-0.11-0.43c-0.06-0.11-0.15-0.2-0.27-0.27
		c-0.12-0.07-0.29-0.13-0.5-0.19v-0.55h4.87c0.66,0,1.21,0.05,1.67,0.14c0.46,0.09,0.86,0.23,1.21,0.42
		c0.29,0.16,0.53,0.35,0.74,0.59c0.2,0.24,0.35,0.51,0.46,0.83c0.11,0.31,0.16,0.68,0.16,1.1c0,0.55-0.1,1.01-0.29,1.4
		c-0.19,0.39-0.45,0.71-0.78,0.97c-0.33,0.26-0.76,0.5-1.31,0.73v0.08c0.41,0.18,0.75,0.42,1.02,0.71s0.51,0.67,0.73,1.13l0.53,1.14
		c0.23,0.51,0.47,0.89,0.7,1.14c0.23,0.25,0.51,0.41,0.82,0.46v0.55h-3.22c-0.32-0.45-0.69-1.11-1.09-1.99l-0.65-1.43
		c-0.19-0.42-0.36-0.72-0.5-0.9c-0.14-0.18-0.28-0.3-0.43-0.37c-0.15-0.07-0.37-0.1-0.68-0.1H132v2.69c0,0.42,0.02,0.71,0.06,0.88
		c0.04,0.17,0.11,0.3,0.23,0.4c0.11,0.1,0.32,0.19,0.62,0.27V27.94z"/>
	<path class="st2" d="M143.32,25.85c0,0.2,0.01,0.38,0.02,0.54c0.01,0.17,0.03,0.3,0.07,0.41c0.03,0.11,0.08,0.2,0.15,0.27
		c0.06,0.07,0.15,0.13,0.26,0.19c0.11,0.05,0.25,0.1,0.41,0.14v0.55h-4.38v-0.55c0.21-0.06,0.37-0.11,0.49-0.18
		c0.12-0.06,0.21-0.15,0.27-0.27c0.06-0.11,0.1-0.26,0.11-0.43s0.02-0.4,0.02-0.66v-7.21c0-0.27-0.01-0.49-0.02-0.66
		c-0.01-0.17-0.05-0.32-0.11-0.43c-0.06-0.11-0.15-0.2-0.27-0.27c-0.12-0.07-0.29-0.13-0.5-0.18v-0.55h4.38v0.55
		c-0.23,0.06-0.4,0.13-0.51,0.2c-0.11,0.07-0.19,0.15-0.25,0.25c-0.06,0.1-0.09,0.23-0.12,0.39c-0.02,0.16-0.03,0.4-0.03,0.71V25.85
		z"/>
	<path class="st2" d="M154.11,16.8v2.42h-1.14c-0.13-0.63-0.34-1.09-0.63-1.39c-0.29-0.3-0.67-0.45-1.14-0.45
		c-0.88,0-1.55,0.42-2,1.26c-0.45,0.84-0.68,2.1-0.68,3.75c0,1.54,0.21,2.71,0.62,3.5c0.41,0.79,1.02,1.19,1.81,1.19
		c0.41,0,0.74-0.07,0.99-0.2c0.26-0.14,0.46-0.34,0.61-0.61c0.15-0.27,0.29-0.66,0.4-1.15h1.14v2.53c-0.61,0.15-1.17,0.25-1.68,0.32
		c-0.51,0.07-1.03,0.1-1.58,0.1c-1.16,0-2.1-0.21-2.84-0.63c-0.73-0.42-1.27-1.05-1.62-1.89c-0.35-0.84-0.52-1.91-0.52-3.2
		c0-1.21,0.2-2.26,0.61-3.15c0.41-0.89,1.01-1.58,1.81-2.07s1.75-0.73,2.86-0.73c0.56,0,1.07,0.03,1.53,0.09
		C153.13,16.56,153.61,16.66,154.11,16.8"/>
	<path class="st2" d="M158.31,23.43h3.01l-1.34-4.7L158.31,23.43z M161.56,24.41h-3.57l-0.28,0.79c-0.08,0.22-0.14,0.44-0.19,0.65
		c-0.05,0.21-0.07,0.43-0.07,0.66c0,0.55,0.29,0.84,0.87,0.88v0.55h-3.57v-0.55c0.21-0.02,0.39-0.09,0.54-0.22
		c0.16-0.12,0.3-0.29,0.43-0.5c0.13-0.21,0.26-0.51,0.41-0.91l3.48-9.28h2.23l2.76,9.35c0.12,0.42,0.23,0.71,0.31,0.89
		c0.08,0.17,0.19,0.32,0.33,0.43c0.13,0.11,0.32,0.19,0.56,0.24v0.55h-4.61v-0.55c0.29-0.03,0.5-0.11,0.64-0.24
		c0.14-0.13,0.21-0.31,0.21-0.54c0-0.17-0.02-0.36-0.06-0.58c-0.04-0.21-0.1-0.48-0.19-0.8L161.56,24.41z"/>
	<path class="st2" d="M176.89,16.54v0.55c-0.22,0.07-0.38,0.13-0.47,0.18c-0.09,0.05-0.17,0.12-0.23,0.2
		c-0.06,0.08-0.11,0.21-0.15,0.38c-0.03,0.17-0.05,0.43-0.05,0.78v9.3h-2.12l-3.76-6.5c-0.51-0.88-0.88-1.57-1.12-2.07h-0.07
		c0.06,1.2,0.08,2.46,0.08,3.79v2.69c0,0.42,0.02,0.71,0.06,0.88c0.04,0.17,0.12,0.3,0.23,0.4c0.11,0.1,0.31,0.19,0.61,0.26v0.55
		h-3.16v-0.55c0.21-0.06,0.37-0.12,0.49-0.18c0.12-0.07,0.21-0.16,0.27-0.27c0.06-0.11,0.1-0.26,0.11-0.43
		c0.02-0.17,0.02-0.39,0.02-0.65v-7.22c0-0.42-0.02-0.71-0.05-0.86c-0.04-0.16-0.11-0.29-0.23-0.4c-0.11-0.11-0.32-0.2-0.61-0.28
		v-0.55h3.38l2.96,5.14c0.18,0.32,0.42,0.76,0.72,1.31c0.3,0.55,0.56,1.07,0.79,1.56h0.13c-0.06-1.33-0.09-2.78-0.09-4.36v-1.55
		c0-0.36-0.01-0.62-0.04-0.78c-0.03-0.16-0.07-0.28-0.13-0.37c-0.06-0.08-0.14-0.15-0.23-0.21c-0.1-0.06-0.26-0.12-0.49-0.18v-0.55
		H176.89z"/>
	<path class="st2" d="M57.91,37.99c0,0.12,0,0.23,0.01,0.33c0.01,0.1,0.02,0.19,0.04,0.25c0.02,0.06,0.05,0.12,0.09,0.16
		c0.04,0.04,0.09,0.08,0.16,0.11c0.07,0.03,0.15,0.06,0.25,0.08v0.34h-2.68v-0.34c0.13-0.03,0.23-0.07,0.3-0.11
		c0.07-0.04,0.13-0.09,0.16-0.16c0.04-0.07,0.06-0.16,0.07-0.27c0.01-0.11,0.02-0.24,0.02-0.41v-4.41c0-0.16,0-0.3-0.01-0.4
		c-0.01-0.11-0.03-0.19-0.07-0.26c-0.04-0.07-0.09-0.13-0.16-0.17c-0.07-0.04-0.17-0.08-0.3-0.11V32.3h2.68v0.34
		c-0.14,0.04-0.24,0.08-0.31,0.12c-0.07,0.04-0.12,0.09-0.15,0.16c-0.03,0.06-0.06,0.14-0.07,0.24c-0.01,0.1-0.02,0.24-0.02,0.43
		V37.99z"/>
	<path class="st2" d="M65.63,32.3v0.34c-0.14,0.04-0.23,0.08-0.29,0.11c-0.06,0.03-0.1,0.07-0.14,0.12
		c-0.04,0.05-0.07,0.13-0.09,0.23c-0.02,0.1-0.03,0.26-0.03,0.48v5.69h-1.3l-2.3-3.97c-0.31-0.54-0.54-0.96-0.68-1.27h-0.05
		c0.03,0.73,0.05,1.51,0.05,2.32V38c0,0.26,0.01,0.43,0.04,0.54c0.03,0.1,0.07,0.18,0.14,0.24c0.07,0.06,0.19,0.11,0.38,0.16v0.34
		h-1.93v-0.34c0.13-0.03,0.23-0.07,0.3-0.11c0.07-0.04,0.13-0.1,0.16-0.17c0.04-0.07,0.06-0.16,0.07-0.26
		c0.01-0.11,0.02-0.24,0.02-0.4v-4.42c0-0.26-0.01-0.43-0.03-0.53c-0.02-0.1-0.07-0.18-0.14-0.24c-0.07-0.06-0.2-0.12-0.38-0.17
		V32.3h2.07l1.81,3.14c0.11,0.2,0.26,0.47,0.44,0.8c0.18,0.34,0.34,0.66,0.48,0.96h0.08c-0.04-0.81-0.06-1.7-0.06-2.67v-0.95
		c0-0.22-0.01-0.38-0.03-0.48c-0.02-0.1-0.04-0.17-0.08-0.22c-0.04-0.05-0.08-0.09-0.14-0.13c-0.06-0.03-0.16-0.07-0.3-0.11V32.3
		H65.63z"/>
	<path class="st2" d="M67.99,39.27v-0.34c0.14-0.02,0.26-0.06,0.34-0.09c0.08-0.04,0.15-0.09,0.19-0.17
		c0.04-0.07,0.07-0.16,0.08-0.27c0.01-0.11,0.02-0.25,0.02-0.41V32.9H68.2c-0.2,0-0.36,0.02-0.47,0.07
		c-0.11,0.05-0.2,0.12-0.28,0.22s-0.15,0.24-0.21,0.41c-0.06,0.17-0.11,0.33-0.14,0.49h-0.7V32.3h6.01v1.79h-0.7
		c-0.07-0.23-0.12-0.4-0.15-0.51c-0.04-0.11-0.08-0.2-0.13-0.28c-0.05-0.08-0.09-0.14-0.15-0.19c-0.05-0.05-0.11-0.09-0.16-0.12
		c-0.06-0.03-0.13-0.05-0.22-0.07c-0.09-0.02-0.2-0.02-0.34-0.02h-0.37v5.09c0,0.18,0,0.32,0.02,0.41c0.01,0.09,0.03,0.17,0.06,0.23
		c0.03,0.06,0.06,0.1,0.1,0.14c0.04,0.04,0.09,0.07,0.16,0.1c0.07,0.03,0.16,0.05,0.28,0.07v0.34H67.99z"/>
	<path class="st2" d="M78.3,32.3v1.62h-0.7c-0.11-0.32-0.21-0.54-0.29-0.66c-0.08-0.11-0.17-0.2-0.28-0.27
		c-0.11-0.07-0.29-0.1-0.56-0.1h-1.11v2.45h0.67c0.15,0,0.27-0.02,0.35-0.06c0.08-0.04,0.16-0.11,0.21-0.21
		c0.06-0.1,0.11-0.25,0.16-0.46h0.58v2.07h-0.58c-0.05-0.2-0.1-0.35-0.16-0.45c-0.06-0.1-0.13-0.18-0.21-0.22
		c-0.08-0.04-0.2-0.07-0.36-0.07h-0.67v2.73h1.11c0.12,0,0.22-0.01,0.3-0.02c0.08-0.02,0.15-0.04,0.22-0.08
		c0.06-0.04,0.13-0.09,0.19-0.15c0.06-0.06,0.11-0.13,0.16-0.21c0.05-0.07,0.09-0.17,0.15-0.3c0.05-0.12,0.11-0.29,0.17-0.51h0.7
		l-0.1,1.86h-5.02v-0.34c0.13-0.03,0.23-0.07,0.3-0.11c0.07-0.04,0.13-0.09,0.16-0.16c0.04-0.07,0.06-0.16,0.07-0.27
		c0.01-0.11,0.02-0.24,0.02-0.41v-4.4c0-0.16,0-0.29-0.01-0.4c-0.01-0.11-0.03-0.2-0.07-0.27c-0.04-0.07-0.09-0.12-0.16-0.17
		c-0.07-0.04-0.17-0.08-0.3-0.11V32.3H78.3z"/>
	<path class="st2" d="M81.41,32.91v2.84h0.51c0.27,0,0.5-0.04,0.67-0.11c0.18-0.07,0.32-0.18,0.42-0.31s0.18-0.29,0.21-0.46
		c0.04-0.18,0.06-0.37,0.06-0.58c0-0.46-0.11-0.81-0.33-1.04c-0.22-0.23-0.54-0.35-0.97-0.35C81.69,32.9,81.5,32.9,81.41,32.91
		 M81.96,39.27h-2.68v-0.34c0.13-0.03,0.23-0.07,0.3-0.11c0.07-0.04,0.13-0.09,0.16-0.16c0.04-0.07,0.06-0.16,0.07-0.27
		c0.01-0.11,0.02-0.24,0.02-0.41v-4.4c0-0.16,0-0.29-0.01-0.4c-0.01-0.11-0.03-0.2-0.07-0.27c-0.04-0.07-0.09-0.12-0.16-0.17
		c-0.07-0.04-0.17-0.08-0.3-0.11V32.3h2.98c0.4,0,0.74,0.03,1.02,0.08c0.28,0.06,0.53,0.14,0.74,0.26c0.18,0.1,0.33,0.22,0.45,0.36
		c0.12,0.15,0.22,0.31,0.28,0.51c0.07,0.19,0.1,0.42,0.1,0.67c0,0.33-0.06,0.62-0.18,0.86c-0.12,0.24-0.28,0.44-0.48,0.6
		c-0.2,0.16-0.47,0.31-0.8,0.45v0.05c0.25,0.11,0.46,0.25,0.63,0.44c0.16,0.18,0.31,0.41,0.45,0.69l0.32,0.69
		c0.14,0.31,0.29,0.54,0.43,0.7c0.14,0.16,0.31,0.25,0.5,0.28v0.34h-1.97c-0.2-0.27-0.42-0.68-0.67-1.22l-0.4-0.87
		c-0.12-0.26-0.22-0.44-0.31-0.55c-0.08-0.11-0.17-0.18-0.26-0.22c-0.09-0.04-0.23-0.06-0.42-0.06h-0.3v1.65
		c0,0.26,0.01,0.43,0.04,0.54c0.02,0.1,0.07,0.18,0.14,0.25c0.07,0.06,0.19,0.12,0.38,0.16V39.27z"/>
	<path class="st2" d="M92.39,32.3v0.34c-0.14,0.04-0.23,0.08-0.29,0.11c-0.06,0.03-0.1,0.07-0.14,0.12
		c-0.04,0.05-0.07,0.13-0.09,0.23c-0.02,0.1-0.03,0.26-0.03,0.48v5.69h-1.3l-2.3-3.97c-0.31-0.54-0.54-0.96-0.68-1.27h-0.05
		c0.03,0.73,0.05,1.51,0.05,2.32V38c0,0.26,0.01,0.43,0.04,0.54c0.03,0.1,0.07,0.18,0.14,0.24c0.07,0.06,0.19,0.11,0.38,0.16v0.34
		h-1.93v-0.34c0.13-0.03,0.23-0.07,0.3-0.11c0.07-0.04,0.13-0.1,0.16-0.17c0.04-0.07,0.06-0.16,0.07-0.26
		c0.01-0.11,0.02-0.24,0.02-0.4v-4.42c0-0.26-0.01-0.43-0.03-0.53c-0.02-0.1-0.07-0.18-0.14-0.24c-0.07-0.06-0.2-0.12-0.38-0.17
		V32.3h2.07l1.81,3.14c0.11,0.2,0.26,0.47,0.44,0.8c0.18,0.34,0.34,0.66,0.48,0.96h0.08c-0.04-0.81-0.06-1.7-0.06-2.67v-0.95
		c0-0.22-0.01-0.38-0.03-0.48c-0.02-0.1-0.04-0.17-0.08-0.22c-0.04-0.05-0.08-0.09-0.14-0.13c-0.06-0.03-0.16-0.07-0.3-0.11V32.3
		H92.39z"/>
	<path class="st2" d="M94.75,36.51h1.84l-0.82-2.88L94.75,36.51z M96.74,37.11h-2.18l-0.17,0.49c-0.05,0.14-0.09,0.27-0.12,0.4
		c-0.03,0.13-0.05,0.26-0.05,0.41c0,0.33,0.18,0.51,0.53,0.54v0.34h-2.18v-0.34c0.13-0.01,0.24-0.06,0.33-0.13s0.18-0.18,0.26-0.31
		c0.08-0.13,0.16-0.31,0.25-0.56l2.13-5.68h1.36l1.69,5.72c0.07,0.26,0.14,0.44,0.19,0.54c0.05,0.11,0.12,0.19,0.2,0.26
		c0.08,0.07,0.2,0.11,0.34,0.15v0.34h-2.82v-0.34c0.18-0.02,0.31-0.07,0.39-0.15c0.08-0.08,0.13-0.19,0.13-0.33
		c0-0.11-0.01-0.22-0.04-0.35c-0.02-0.13-0.06-0.29-0.12-0.49L96.74,37.11z"/>
	<path class="st2" d="M100.53,39.27v-0.34c0.14-0.02,0.26-0.06,0.34-0.09c0.08-0.04,0.15-0.09,0.19-0.17
		c0.04-0.07,0.07-0.16,0.08-0.27c0.01-0.11,0.02-0.25,0.02-0.41V32.9h-0.41c-0.2,0-0.36,0.02-0.47,0.07
		c-0.11,0.05-0.2,0.12-0.28,0.22c-0.08,0.1-0.15,0.24-0.21,0.41c-0.06,0.17-0.11,0.33-0.14,0.49h-0.7V32.3h6.01v1.79h-0.7
		c-0.07-0.23-0.12-0.4-0.15-0.51c-0.04-0.11-0.08-0.2-0.13-0.28c-0.05-0.08-0.09-0.14-0.15-0.19c-0.05-0.05-0.11-0.09-0.16-0.12
		c-0.06-0.03-0.13-0.05-0.22-0.07c-0.09-0.02-0.2-0.02-0.34-0.02h-0.37v5.09c0,0.18,0.01,0.32,0.02,0.41
		c0.01,0.09,0.03,0.17,0.06,0.23c0.03,0.06,0.06,0.1,0.1,0.14c0.04,0.04,0.09,0.07,0.16,0.1c0.07,0.03,0.16,0.05,0.28,0.07v0.34
		H100.53z"/>
	<path class="st2" d="M107.91,37.99c0,0.12,0,0.23,0.01,0.33c0.01,0.1,0.02,0.19,0.04,0.25c0.02,0.06,0.05,0.12,0.09,0.16
		c0.04,0.04,0.09,0.08,0.16,0.11c0.07,0.03,0.15,0.06,0.25,0.08v0.34h-2.68v-0.34c0.13-0.03,0.23-0.07,0.3-0.11
		c0.07-0.04,0.13-0.09,0.16-0.16c0.04-0.07,0.06-0.16,0.07-0.27c0.01-0.11,0.02-0.24,0.02-0.41v-4.41c0-0.16,0-0.3-0.01-0.4
		c-0.01-0.11-0.03-0.19-0.07-0.26c-0.04-0.07-0.09-0.13-0.16-0.17c-0.07-0.04-0.17-0.08-0.3-0.11V32.3h2.68v0.34
		c-0.14,0.04-0.24,0.08-0.31,0.12c-0.07,0.04-0.12,0.09-0.15,0.16c-0.03,0.06-0.06,0.14-0.07,0.24c-0.01,0.1-0.02,0.24-0.02,0.43
		V37.99z"/>
	<path class="st2" d="M111.11,35.71c0,1.03,0.12,1.79,0.37,2.3c0.25,0.5,0.62,0.75,1.13,0.75c0.26,0,0.49-0.07,0.67-0.21
		c0.18-0.14,0.33-0.34,0.45-0.59c0.11-0.25,0.2-0.55,0.25-0.9c0.05-0.35,0.07-0.73,0.07-1.14c0-0.68-0.05-1.25-0.16-1.7
		c-0.11-0.46-0.27-0.8-0.49-1.04c-0.22-0.23-0.49-0.35-0.83-0.35c-0.49,0-0.86,0.24-1.1,0.71
		C111.23,33.99,111.11,34.72,111.11,35.71 M112.49,39.36c-1,0-1.75-0.29-2.26-0.88c-0.5-0.59-0.75-1.46-0.75-2.63
		c0-0.77,0.12-1.42,0.37-1.96c0.24-0.54,0.6-0.96,1.08-1.24c0.47-0.28,1.04-0.42,1.69-0.42c1.02,0,1.78,0.29,2.29,0.88
		c0.51,0.58,0.77,1.45,0.77,2.6c0,0.64-0.08,1.2-0.23,1.66c-0.15,0.46-0.37,0.84-0.65,1.14c-0.28,0.3-0.61,0.51-1,0.65
		C113.41,39.29,112.97,39.36,112.49,39.36"/>
	<path class="st2" d="M122.9,32.3v0.34c-0.14,0.04-0.23,0.08-0.29,0.11c-0.06,0.03-0.1,0.07-0.14,0.12
		c-0.04,0.05-0.07,0.13-0.09,0.23c-0.02,0.1-0.03,0.26-0.03,0.48v5.69h-1.3l-2.3-3.97c-0.31-0.54-0.54-0.96-0.68-1.27h-0.05
		c0.03,0.73,0.05,1.51,0.05,2.32V38c0,0.26,0.01,0.43,0.04,0.54c0.03,0.1,0.07,0.18,0.14,0.24c0.07,0.06,0.19,0.11,0.38,0.16v0.34
		h-1.93v-0.34c0.13-0.03,0.23-0.07,0.3-0.11c0.07-0.04,0.13-0.1,0.16-0.17c0.04-0.07,0.06-0.16,0.07-0.26
		c0.01-0.11,0.02-0.24,0.02-0.4v-4.42c0-0.26-0.01-0.43-0.03-0.53c-0.02-0.1-0.07-0.18-0.14-0.24c-0.07-0.06-0.2-0.12-0.38-0.17
		V32.3h2.07l1.81,3.14c0.11,0.2,0.26,0.47,0.44,0.8c0.18,0.34,0.34,0.66,0.48,0.96h0.08c-0.04-0.81-0.06-1.7-0.06-2.67v-0.95
		c0-0.22-0.01-0.38-0.03-0.48c-0.02-0.1-0.04-0.17-0.08-0.22c-0.04-0.05-0.08-0.09-0.14-0.13c-0.06-0.03-0.16-0.07-0.3-0.11V32.3
		H122.9z"/>
	<path class="st2" d="M125.26,36.51h1.84l-0.82-2.88L125.26,36.51z M127.25,37.11h-2.18l-0.17,0.49c-0.05,0.14-0.09,0.27-0.12,0.4
		c-0.03,0.13-0.05,0.26-0.05,0.41c0,0.33,0.18,0.51,0.53,0.54v0.34h-2.18v-0.34c0.13-0.01,0.24-0.06,0.33-0.13s0.18-0.18,0.26-0.31
		c0.08-0.13,0.16-0.31,0.25-0.56l2.13-5.68h1.36l1.69,5.72c0.07,0.26,0.14,0.44,0.19,0.54c0.05,0.11,0.12,0.19,0.2,0.26
		c0.08,0.07,0.2,0.11,0.34,0.15v0.34h-2.82v-0.34c0.18-0.02,0.31-0.07,0.39-0.15c0.09-0.08,0.13-0.19,0.13-0.33
		c0-0.11-0.01-0.22-0.04-0.35c-0.02-0.13-0.06-0.29-0.12-0.49L127.25,37.11z"/>
	<path class="st2" d="M133.12,32.3v0.34c-0.12,0.03-0.22,0.07-0.29,0.11c-0.07,0.04-0.13,0.09-0.17,0.16
		c-0.04,0.07-0.07,0.16-0.08,0.26c-0.01,0.11-0.02,0.24-0.02,0.41v5.09h0.99c0.2,0,0.36-0.03,0.48-0.09
		c0.12-0.06,0.22-0.16,0.31-0.28c0.09-0.13,0.16-0.29,0.22-0.5c0.06-0.21,0.11-0.4,0.15-0.58h0.7l-0.11,2.06h-4.87v-0.34
		c0.13-0.03,0.23-0.07,0.3-0.11c0.07-0.04,0.13-0.1,0.16-0.17c0.04-0.07,0.06-0.16,0.07-0.27c0.01-0.11,0.02-0.24,0.02-0.41v-4.4
		c0-0.16,0-0.29-0.01-0.4c-0.01-0.11-0.03-0.2-0.07-0.27c-0.04-0.07-0.09-0.12-0.16-0.17c-0.07-0.04-0.17-0.08-0.3-0.11V32.3H133.12
		z"/>
	<path class="st2" d="M139.14,37.55c0.09,0.41,0.23,0.71,0.43,0.91c0.2,0.2,0.49,0.3,0.88,0.3c0.2,0,0.38-0.03,0.54-0.1
		c0.16-0.07,0.29-0.18,0.39-0.33c0.1-0.15,0.15-0.34,0.15-0.57c0-0.21-0.04-0.39-0.12-0.55c-0.08-0.16-0.2-0.3-0.38-0.44
		c-0.17-0.14-0.42-0.29-0.73-0.44c-0.27-0.13-0.51-0.27-0.72-0.41c-0.21-0.14-0.4-0.3-0.55-0.47c-0.15-0.17-0.27-0.36-0.35-0.56
		c-0.08-0.2-0.13-0.43-0.13-0.69c0-0.42,0.1-0.77,0.31-1.07c0.21-0.29,0.51-0.52,0.9-0.67c0.39-0.15,0.85-0.23,1.37-0.23
		c0.3,0,0.59,0.02,0.87,0.05c0.28,0.03,0.59,0.09,0.94,0.17v1.48h-0.7c-0.07-0.27-0.15-0.48-0.25-0.64
		c-0.1-0.16-0.23-0.27-0.38-0.35c-0.15-0.07-0.34-0.11-0.57-0.11c-0.19,0-0.37,0.03-0.52,0.1c-0.15,0.07-0.27,0.17-0.36,0.3
		c-0.09,0.13-0.13,0.3-0.13,0.49c0,0.2,0.04,0.37,0.12,0.51c0.08,0.14,0.21,0.29,0.39,0.42c0.18,0.14,0.44,0.3,0.79,0.47
		c0.42,0.22,0.75,0.43,0.99,0.64c0.24,0.21,0.42,0.44,0.53,0.68c0.11,0.25,0.17,0.53,0.17,0.86c0,0.42-0.1,0.78-0.29,1.09
		c-0.19,0.31-0.48,0.55-0.85,0.71c-0.37,0.16-0.8,0.25-1.29,0.25c-0.35,0-0.71-0.02-1.09-0.06c-0.38-0.04-0.73-0.1-1.06-0.17v-1.57
		H139.14z"/>
	<path class="st2" d="M148.95,32.46v1.48h-0.7c-0.08-0.38-0.21-0.67-0.39-0.85c-0.18-0.18-0.41-0.27-0.69-0.27
		c-0.54,0-0.95,0.26-1.22,0.77c-0.28,0.52-0.41,1.28-0.41,2.3c0,0.94,0.13,1.66,0.38,2.14c0.25,0.49,0.62,0.73,1.11,0.73
		c0.25,0,0.45-0.04,0.61-0.12c0.16-0.08,0.28-0.21,0.38-0.38c0.09-0.17,0.17-0.4,0.24-0.71h0.7v1.55c-0.37,0.09-0.72,0.15-1.03,0.19
		c-0.31,0.04-0.63,0.06-0.97,0.06c-0.71,0-1.29-0.13-1.73-0.38c-0.45-0.26-0.78-0.64-0.99-1.16c-0.21-0.52-0.32-1.17-0.32-1.96
		c0-0.74,0.12-1.38,0.38-1.93c0.25-0.55,0.62-0.97,1.11-1.26c0.49-0.3,1.07-0.44,1.75-0.44c0.34,0,0.66,0.02,0.94,0.06
		C148.35,32.31,148.65,32.37,148.95,32.46"/>
	<path class="st2" d="M155.9,37.99c0,0.26,0.01,0.44,0.03,0.54c0.02,0.1,0.07,0.18,0.14,0.24c0.07,0.06,0.19,0.12,0.37,0.16v0.34
		h-2.67v-0.34c0.2-0.05,0.33-0.1,0.38-0.15c0.06-0.05,0.1-0.12,0.12-0.22c0.02-0.09,0.04-0.29,0.04-0.57v-2.05H152v2.05
		c0,0.12,0,0.23,0.01,0.33s0.02,0.19,0.04,0.25c0.02,0.06,0.05,0.12,0.09,0.16c0.04,0.04,0.09,0.08,0.16,0.11
		c0.07,0.03,0.15,0.06,0.25,0.08v0.34h-2.68v-0.34c0.13-0.03,0.23-0.07,0.3-0.11c0.07-0.04,0.13-0.09,0.16-0.16
		c0.04-0.07,0.06-0.16,0.07-0.27c0.01-0.11,0.02-0.24,0.02-0.41v-4.4c0-0.16,0-0.3-0.01-0.4c-0.01-0.11-0.03-0.2-0.07-0.27
		c-0.04-0.07-0.09-0.12-0.16-0.17c-0.07-0.04-0.17-0.08-0.3-0.11V32.3h2.68v0.34c-0.18,0.05-0.3,0.11-0.37,0.17
		c-0.07,0.06-0.11,0.14-0.14,0.24c-0.03,0.1-0.04,0.28-0.04,0.54v1.71h2.31v-1.71c0-0.26-0.01-0.44-0.03-0.54
		c-0.02-0.1-0.07-0.18-0.13-0.25c-0.07-0.06-0.19-0.12-0.38-0.17V32.3h2.67v0.34c-0.15,0.04-0.26,0.08-0.33,0.13
		c-0.07,0.05-0.12,0.1-0.15,0.18c-0.03,0.07-0.05,0.15-0.06,0.24c-0.01,0.09-0.01,0.22-0.01,0.41V37.99z"/>
	<path class="st2" d="M159.1,35.71c0,1.03,0.12,1.79,0.37,2.3c0.25,0.5,0.62,0.75,1.13,0.75c0.26,0,0.49-0.07,0.67-0.21
		c0.18-0.14,0.33-0.34,0.45-0.59c0.11-0.25,0.2-0.55,0.25-0.9c0.05-0.35,0.07-0.73,0.07-1.14c0-0.68-0.05-1.25-0.16-1.7
		c-0.11-0.46-0.27-0.8-0.48-1.04c-0.22-0.23-0.49-0.35-0.83-0.35c-0.49,0-0.86,0.24-1.1,0.71C159.22,33.99,159.1,34.72,159.1,35.71
		 M160.49,39.36c-1,0-1.75-0.29-2.26-0.88c-0.5-0.59-0.75-1.46-0.75-2.63c0-0.77,0.12-1.42,0.37-1.96c0.24-0.54,0.6-0.96,1.07-1.24
		c0.47-0.28,1.04-0.42,1.69-0.42c1.02,0,1.78,0.29,2.29,0.88c0.51,0.58,0.77,1.45,0.77,2.6c0,0.64-0.08,1.2-0.23,1.66
		c-0.15,0.46-0.37,0.84-0.65,1.14c-0.28,0.3-0.61,0.51-1,0.65C161.4,39.29,160.97,39.36,160.49,39.36"/>
	<path class="st2" d="M166.38,35.71c0,1.03,0.12,1.79,0.37,2.3c0.25,0.5,0.62,0.75,1.13,0.75c0.26,0,0.49-0.07,0.67-0.21
		c0.18-0.14,0.33-0.34,0.45-0.59c0.11-0.25,0.2-0.55,0.25-0.9c0.05-0.35,0.07-0.73,0.07-1.14c0-0.68-0.05-1.25-0.16-1.7
		c-0.11-0.46-0.27-0.8-0.48-1.04c-0.22-0.23-0.49-0.35-0.83-0.35c-0.49,0-0.86,0.24-1.1,0.71C166.5,33.99,166.38,34.72,166.38,35.71
		 M167.76,39.36c-1,0-1.75-0.29-2.26-0.88c-0.5-0.59-0.75-1.46-0.75-2.63c0-0.77,0.12-1.42,0.37-1.96c0.24-0.54,0.6-0.96,1.08-1.24
		c0.47-0.28,1.04-0.42,1.69-0.42c1.02,0,1.78,0.29,2.29,0.88c0.51,0.58,0.77,1.45,0.77,2.6c0,0.64-0.08,1.2-0.23,1.66
		c-0.15,0.46-0.37,0.84-0.65,1.14c-0.28,0.3-0.61,0.51-1,0.65C168.68,39.29,168.24,39.36,167.76,39.36"/>
	<path class="st2" d="M174.66,32.3v0.34c-0.12,0.03-0.22,0.07-0.29,0.11c-0.07,0.04-0.13,0.09-0.17,0.16
		c-0.04,0.07-0.06,0.16-0.08,0.26c-0.01,0.11-0.02,0.24-0.02,0.41v5.09h0.99c0.2,0,0.36-0.03,0.48-0.09
		c0.12-0.06,0.22-0.16,0.31-0.28c0.09-0.13,0.16-0.29,0.22-0.5c0.06-0.21,0.11-0.4,0.15-0.58h0.7l-0.11,2.06h-4.87v-0.34
		c0.13-0.03,0.23-0.07,0.3-0.11c0.07-0.04,0.13-0.1,0.16-0.17c0.04-0.07,0.06-0.16,0.07-0.27c0.01-0.11,0.02-0.24,0.02-0.41v-4.4
		c0-0.16,0-0.29-0.01-0.4c-0.01-0.11-0.03-0.2-0.07-0.27c-0.04-0.07-0.09-0.12-0.16-0.17c-0.07-0.04-0.17-0.08-0.3-0.11V32.3H174.66
		z"/>
</g>
</svg>
