<?xml version="1.0" encoding="utf-8"?>
<!-- Generator: Adobe Illustrator 28.0.0, SVG Export Plug-In . SVG Version: 6.00 Build 0)  -->
<svg version="1.1" id="Layer_1" xmlns="http://www.w3.org/2000/svg" xmlns:xlink="http://www.w3.org/1999/xlink" x="0px" y="0px"
	 viewBox="0 0 50 50" style="enable-background:new 0 0 50 50;" xml:space="preserve">
<style type="text/css">
	.st0{display:none;fill:#0B143B;}
	.st1{fill:#0B143B;}
</style>
<path class="st0" d="M24.62,1.37c-12.89,0-23.38,10.49-23.38,23.38s10.49,23.38,23.38,23.38c12.89,0,23.38-10.49,23.38-23.38
	S37.52,1.37,24.62,1.37z M24.62,2.98c4.21,0,8.81,7.51,9.23,20.07l0.03,0.9H15.37l0.03-0.9C15.81,10.49,20.42,2.98,24.62,2.98z
	 M2.92,23.01C3.6,14.5,9.25,7.13,17.31,4.25l2.48-0.89l-1.47,2.19C15.65,9.54,14,15.94,13.79,23.11l-0.03,0.84H2.85L2.92,23.01z
	 M17.31,45.27C9.25,42.38,3.6,35.02,2.92,26.5l-0.07-0.94h10.91l0.03,0.84c0.21,7.17,1.87,13.57,4.54,17.56l1.47,2.19L17.31,45.27z
	 M24.62,46.54c-4.21,0-8.81-7.51-9.23-20.07l-0.03-0.9h18.52l-0.03,0.9C33.44,39.03,28.83,46.54,24.62,46.54z M46.33,26.5
	C45.65,35.02,40,42.38,31.94,45.27l-2.48,0.89l1.47-2.19c2.67-3.99,4.32-10.39,4.54-17.56l0.03-0.84H46.4L46.33,26.5z M46.4,23.95
	H35.49l-0.03-0.84c-0.21-7.17-1.87-13.57-4.54-17.56l-1.47-2.19l2.48,0.89C40,7.13,45.65,14.5,46.33,23.01L46.4,23.95z"/>
<g>
	<g>
		<path class="st1" d="M38.44,9.78c-1.03,0-1.87,0.84-1.87,1.87s0.84,1.87,1.87,1.87s1.87-0.84,1.87-1.87S39.48,9.78,38.44,9.78z"/>
		<path class="st1" d="M25.21,13.6c-6.29,0-11.4,5.12-11.4,11.4c0,6.29,5.12,11.4,11.4,11.4c6.29,0,11.4-5.12,11.4-11.4
			C36.61,18.71,31.5,13.6,25.21,13.6z M25.21,34.12c-5.03,0-9.12-4.09-9.12-9.12s4.09-9.12,9.12-9.12c5.03,0,9.11,4.09,9.11,9.12
			S30.23,34.12,25.21,34.12z"/>
		<path class="st1" d="M49.29,14.86c0-7.8-6.35-14.15-14.15-14.15H14.86c-7.8,0-14.15,6.35-14.15,14.15v20.28
			c0,7.8,6.35,14.15,14.15,14.15h20.28c7.8,0,14.15-6.35,14.15-14.15V14.86z M46.72,35.14c0,6.39-5.19,11.58-11.58,11.58H14.86
			c-6.39,0-11.58-5.19-11.58-11.58V14.86c0-6.39,5.19-11.58,11.58-11.58h20.28c6.39,0,11.58,5.19,11.58,11.58V35.14z"/>
	</g>
</g>
</svg>
